<?xml version="1.0" encoding="utf-8" standalone="no"?>
<!DOCTYPE svg PUBLIC "-//W3C//DTD SVG 1.1//EN"
  "http://www.w3.org/Graphics/SVG/1.1/DTD/svg11.dtd">
<svg xmlns:xlink="http://www.w3.org/1999/xlink" width="153pt" height="153pt" viewBox="0 0 153 153" xmlns="http://www.w3.org/2000/svg" version="1.1">
 <metadata>
  <rdf:RDF xmlns:dc="http://purl.org/dc/elements/1.1/" xmlns:cc="http://creativecommons.org/ns#" xmlns:rdf="http://www.w3.org/1999/02/22-rdf-syntax-ns#">
   <cc:Work>
    <dc:type rdf:resource="http://purl.org/dc/dcmitype/StillImage"/>
    <dc:date>2024-04-06T18:03:08.596614</dc:date>
    <dc:format>image/svg+xml</dc:format>
    <dc:creator>
     <cc:Agent>
      <dc:title>Matplotlib v3.8.0, https://matplotlib.org/</dc:title>
     </cc:Agent>
    </dc:creator>
   </cc:Work>
  </rdf:RDF>
 </metadata>
 <defs>
  <style type="text/css">*{stroke-linejoin: round; stroke-linecap: butt}</style>
 </defs>
 <g id="figure_1">
  <g id="patch_1">
   <path d="M 0 153 
L 153 153 
L 153 -0 
L 0 -0 
z
" style="fill: #ffffff"/>
  </g>
  <g id="patch_2">
   <path d="M 7.2 145.8 
L 145.8 145.8 
L 145.8 7.2 
L 7.2 7.2 
z
" style="fill: #eaeaf2"/>
  </g>
  <g id="pane3d_1">
   <g id="patch_3">
    <path d="M 17.236601 97.553167 
L 78.372973 55.430885 
L 78.372973 8.238569 
L 13.250969 50.206275 
" style="fill: #f2f2f2; opacity: 0.5; stroke: #f2f2f2; stroke-width: 0.3; stroke-linejoin: miter"/>
   </g>
  </g>
  <g id="pane3d_2">
   <g id="patch_4">
    <path d="M 78.372973 55.430885 
L 139.509345 97.553167 
L 143.494977 50.206275 
L 78.372973 8.238569 
" style="fill: #e6e6e6; opacity: 0.5; stroke: #e6e6e6; stroke-width: 0.3; stroke-linejoin: miter"/>
   </g>
  </g>
  <g id="pane3d_3">
   <g id="patch_5">
    <path d="M 17.236601 97.553167 
L 78.372973 144.834228 
L 139.509345 97.553167 
L 78.372973 55.430885 
" style="fill: #ececec; opacity: 0.5; stroke: #ececec; stroke-width: 0.3; stroke-linejoin: miter"/>
   </g>
  </g>
  <g id="grid3d_1"/>
  <g id="grid3d_2"/>
  <g id="grid3d_3"/>
  <g id="axis3d_1">
   <g id="line2d_1">
    <path d="M 17.236601 97.553167 
L 78.372973 144.834228 
" style="fill: none"/>
   </g>
  </g>
  <g id="axis3d_2">
   <g id="line2d_2">
    <path d="M 139.509345 97.553167 
L 78.372973 144.834228 
" style="fill: none"/>
   </g>
  </g>
  <g id="axis3d_3">
   <g id="line2d_3">
    <path d="M 139.509345 97.553167 
L 143.494977 50.206275 
" style="fill: none"/>
   </g>
  </g>
  <g id="axes_1">
   <g id="Path3DCollection_1">
    <defs>
     <path id="C0_0_73ad43ccae" d="M 0 2.236068 
C 0.593012 2.236068 1.161816 2.000462 1.581139 1.581139 
C 2.000462 1.161816 2.236068 0.593012 2.236068 -0 
C 2.236068 -0.593012 2.000462 -1.161816 1.581139 -1.581139 
C 1.161816 -2.000462 0.593012 -2.236068 0 -2.236068 
C -0.593012 -2.236068 -1.161816 -2.000462 -1.581139 -1.581139 
C -2.000462 -1.161816 -2.236068 -0.593012 -2.236068 0 
C -2.236068 0.593012 -2.000462 1.161816 -1.581139 1.581139 
C -1.161816 2.000462 -0.593012 2.236068 0 2.236068 
z
"/>
    </defs>
    <g clip-path="url(#pce1b6ac46f)">
     <use xlink:href="#C0_0_73ad43ccae" x="72.188836" y="82.284612" style="fill: #4c72b0; fill-opacity: 0.3; stroke: #4c72b0; stroke-opacity: 0.3; stroke-width: 0.3"/>
    </g>
    <g clip-path="url(#pce1b6ac46f)">
     <use xlink:href="#C0_0_73ad43ccae" x="84.076251" y="85.301532" style="fill: #4c72b0; fill-opacity: 0.373004; stroke: #4c72b0; stroke-opacity: 0.373004; stroke-width: 0.3"/>
    </g>
    <g clip-path="url(#pce1b6ac46f)">
     <use xlink:href="#C0_0_73ad43ccae" x="79.745136" y="86.328622" style="fill: #4c72b0; fill-opacity: 0.397858; stroke: #4c72b0; stroke-opacity: 0.397858; stroke-width: 0.3"/>
    </g>
    <g clip-path="url(#pce1b6ac46f)">
     <use xlink:href="#C0_0_73ad43ccae" x="71.433853" y="88.853868" style="fill: #4c72b0; fill-opacity: 0.458965; stroke: #4c72b0; stroke-opacity: 0.458965; stroke-width: 0.3"/>
    </g>
    <g clip-path="url(#pce1b6ac46f)">
     <use xlink:href="#C0_0_73ad43ccae" x="82.036056" y="91.15519" style="fill: #4c72b0; fill-opacity: 0.514653; stroke: #4c72b0; stroke-opacity: 0.514653; stroke-width: 0.3"/>
    </g>
    <g clip-path="url(#pce1b6ac46f)">
     <use xlink:href="#C0_0_73ad43ccae" x="80.312076" y="93.36179" style="fill: #4c72b0; fill-opacity: 0.568049; stroke: #4c72b0; stroke-opacity: 0.568049; stroke-width: 0.3"/>
    </g>
    <g clip-path="url(#pce1b6ac46f)">
     <use xlink:href="#C0_0_73ad43ccae" x="87.426596" y="97.782061" style="fill: #4c72b0; fill-opacity: 0.675012; stroke: #4c72b0; stroke-opacity: 0.675012; stroke-width: 0.3"/>
    </g>
    <g clip-path="url(#pce1b6ac46f)">
     <use xlink:href="#C0_0_73ad43ccae" x="53.18249" y="108.065914" style="fill: #4c72b0; fill-opacity: 0.923864; stroke: #4c72b0; stroke-opacity: 0.923864; stroke-width: 0.3"/>
    </g>
    <g clip-path="url(#pce1b6ac46f)">
     <use xlink:href="#C0_0_73ad43ccae" x="90.146307" y="108.724553" style="fill: #4c72b0; fill-opacity: 0.939802; stroke: #4c72b0; stroke-opacity: 0.939802; stroke-width: 0.3"/>
    </g>
    <g clip-path="url(#pce1b6ac46f)">
     <use xlink:href="#C0_0_73ad43ccae" x="92.37236" y="111.212269" style="fill: #4c72b0; stroke: #4c72b0; stroke-width: 0.3"/>
    </g>
   </g>
   <g id="Poly3DCollection_1">
    <path d="M 74.436161 60.373711 
L 75.745107 61.264911 
L 77.05736 62.15035 
L 78.372973 63.027787 
L 79.688586 62.15035 
L 81.000839 61.264911 
L 82.309785 60.373711 
L 80.994225 59.476928 
L 79.681964 58.579093 
L 78.372973 57.680922 
L 77.063981 58.579093 
L 75.75172 59.476928 
z
" clip-path="url(#pce1b6ac46f)" style="fill: #f7fbff; fill-opacity: 0.5"/>
    <path d="M 70.46931 63.049867 
L 71.777937 63.916015 
L 73.089861 64.76376 
L 74.405174 65.587299 
L 75.731365 64.748724 
L 77.053929 63.894758 
L 78.372973 63.027787 
L 77.05736 62.15035 
L 75.745107 61.264911 
L 74.436161 60.373711 
L 73.117267 61.268659 
L 71.794999 62.160964 
z
" clip-path="url(#pce1b6ac46f)" style="fill: #f7fbff; fill-opacity: 0.5"/>
    <path d="M 78.372973 63.027787 
L 79.692017 63.894758 
L 81.014581 64.748724 
L 82.340772 65.587299 
L 83.656085 64.76376 
L 84.968009 63.916015 
L 86.276636 63.049867 
L 84.950947 62.160964 
L 83.628679 61.268659 
L 82.309785 60.373711 
L 81.000839 61.264911 
L 79.688586 62.15035 
z
" clip-path="url(#pce1b6ac46f)" style="fill: #f7fbff; fill-opacity: 0.5"/>
    <path d="M 66.47121 65.69135 
L 67.778853 66.505369 
L 69.089613 67.277523 
L 70.403601 67.995389 
L 71.74142 67.211244 
L 73.075236 66.408531 
L 74.405174 65.587299 
L 73.089861 64.76376 
L 71.777937 63.916015 
L 70.46931 63.049867 
L 69.14015 63.934751 
L 67.807466 64.815247 
z
" clip-path="url(#pce1b6ac46f)" style="fill: #f6faff; fill-opacity: 0.5"/>
    <path d="M 82.340772 65.587299 
L 83.67071 66.408531 
L 85.004526 67.211244 
L 86.342345 67.995389 
L 87.656333 67.277523 
L 88.967093 66.505369 
L 90.274736 65.69135 
L 88.93848 64.815247 
L 87.605796 63.934751 
L 86.276636 63.049867 
L 84.968009 63.916015 
L 83.656085 64.76376 
z
" clip-path="url(#pce1b6ac46f)" style="fill: #f6faff; fill-opacity: 0.5"/>
    <path d="M 74.405174 65.587299 
L 75.724006 66.380249 
L 77.046531 67.136033 
L 78.372973 67.84844 
L 79.699415 67.136033 
L 81.02194 66.380249 
L 82.340772 65.587299 
L 81.014581 64.748724 
L 79.692017 63.894758 
L 78.372973 63.027787 
L 77.053929 63.894758 
L 75.731365 64.748724 
z
" clip-path="url(#pce1b6ac46f)" style="fill: #f5fafe; fill-opacity: 0.5"/>
    <path d="M 86.342345 67.995389 
L 87.68428 68.762375 
L 89.030407 69.515317 
L 90.380755 70.259147 
L 91.691561 69.696769 
L 92.999713 69.036606 
L 94.305279 68.300695 
L 92.958117 67.432774 
L 91.614606 66.563523 
L 90.274736 65.69135 
L 88.967093 66.505369 
L 87.656333 67.277523 
z
" clip-path="url(#pce1b6ac46f)" style="fill: #f5f9fe; fill-opacity: 0.5"/>
    <path d="M 62.440667 68.300695 
L 63.746233 69.036606 
L 65.054385 69.696769 
L 66.365191 70.259147 
L 67.715539 69.515317 
L 69.061666 68.762375 
L 70.403601 67.995389 
L 69.089613 67.277523 
L 67.778853 66.505369 
L 66.47121 65.69135 
L 65.13134 66.563523 
L 63.787829 67.432774 
z
" clip-path="url(#pce1b6ac46f)" style="fill: #f5f9fe; fill-opacity: 0.5"/>
    <path d="M 70.403601 67.995389 
L 71.721008 68.645274 
L 73.04212 69.213027 
L 74.367331 69.685233 
L 75.707235 69.124712 
L 77.042346 68.512373 
L 78.372973 67.84844 
L 77.046531 67.136033 
L 75.724006 66.380249 
L 74.405174 65.587299 
L 73.075236 66.408531 
L 71.74142 67.211244 
z
" clip-path="url(#pce1b6ac46f)" style="fill: #f3f8fe; fill-opacity: 0.5"/>
    <path d="M 78.372973 67.84844 
L 79.7036 68.512373 
L 81.038711 69.124712 
L 82.378615 69.685233 
L 83.703826 69.213027 
L 85.024938 68.645274 
L 86.342345 67.995389 
L 85.004526 67.211244 
L 83.67071 66.408531 
L 82.340772 65.587299 
L 81.02194 66.380249 
L 79.699415 67.136033 
z
" clip-path="url(#pce1b6ac46f)" style="fill: #f3f8fe; fill-opacity: 0.5"/>
    <path d="M 90.380755 70.259147 
L 91.735284 71.000549 
L 93.09388 71.747673 
L 94.456348 72.509645 
L 95.761952 72.113238 
L 97.065993 71.572623 
L 98.368388 70.920152 
L 97.01047 70.041614 
L 95.656078 69.169436 
L 94.305279 68.300695 
L 92.999713 69.036606 
L 91.691561 69.696769 
z
" clip-path="url(#pce1b6ac46f)" style="fill: #f2f8fd; fill-opacity: 0.5"/>
    <path d="M 58.377558 70.920152 
L 59.679953 71.572623 
L 60.983994 72.113238 
L 62.289598 72.509645 
L 63.652066 71.747673 
L 65.010662 71.000549 
L 66.365191 70.259147 
L 65.054385 69.696769 
L 63.746233 69.036606 
L 62.440667 68.300695 
L 61.089868 69.169436 
L 59.735476 70.041614 
z
" clip-path="url(#pce1b6ac46f)" style="fill: #f2f8fd; fill-opacity: 0.5"/>
    <path d="M 66.365191 70.259147 
L 67.678848 70.699392 
L 68.995713 70.992239 
L 70.316343 71.113581 
L 71.672058 70.669361 
L 73.022347 70.197468 
L 74.367331 69.685233 
L 73.04212 69.213027 
L 71.721008 68.645274 
L 70.403601 67.995389 
L 69.061666 68.762375 
L 67.715539 69.515317 
z
" clip-path="url(#pce1b6ac46f)" style="fill: #eef5fc; fill-opacity: 0.5"/>
    <path d="M 82.378615 69.685233 
L 83.723599 70.197468 
L 85.073888 70.669361 
L 86.429603 71.113581 
L 87.750233 70.992239 
L 89.067098 70.699392 
L 90.380755 70.259147 
L 89.030407 69.515317 
L 87.68428 68.762375 
L 86.342345 67.995389 
L 85.024938 68.645274 
L 83.703826 69.213027 
z
" clip-path="url(#pce1b6ac46f)" style="fill: #eef5fc; fill-opacity: 0.5"/>
    <path d="M 74.367331 69.685233 
L 75.697139 70.050779 
L 77.032137 70.302706 
L 78.372973 70.440186 
L 79.713808 70.302706 
L 81.048807 70.050779 
L 82.378615 69.685233 
L 81.038711 69.124712 
L 79.7036 68.512373 
L 78.372973 67.84844 
L 77.042346 68.512373 
L 75.707235 69.124712 
z
" clip-path="url(#pce1b6ac46f)" style="fill: #edf4fc; fill-opacity: 0.5"/>
    <path d="M 94.456348 72.509645 
L 95.822418 73.295886 
L 97.191763 74.115323 
L 98.564024 74.975567 
L 99.863771 74.68666 
L 101.163298 74.22274 
L 102.462283 73.623034 
L 101.094409 72.708218 
L 99.729737 71.808069 
L 98.368388 70.920152 
L 97.065993 71.572623 
L 95.761952 72.113238 
z
" clip-path="url(#pce1b6ac46f)" style="fill: #f1f7fd; fill-opacity: 0.5"/>
    <path d="M 54.283663 73.623034 
L 55.582648 74.22274 
L 56.882175 74.68666 
L 58.181922 74.975567 
L 59.554183 74.115323 
L 60.923528 73.295886 
L 62.289598 72.509645 
L 60.983994 72.113238 
L 59.679953 71.572623 
L 58.377558 70.920152 
L 57.016209 71.808069 
L 55.651537 72.708218 
z
" clip-path="url(#pce1b6ac46f)" style="fill: #f1f7fd; fill-opacity: 0.5"/>
    <path d="M 62.289598 72.509645 
L 63.596847 72.726006 
L 64.906052 72.724974 
L 66.217819 72.470671 
L 67.58892 71.991831 
L 68.955228 71.547369 
L 70.316343 71.113581 
L 68.995713 70.992239 
L 67.678848 70.699392 
L 66.365191 70.259147 
L 65.010662 71.000549 
L 63.652066 71.747673 
z
" clip-path="url(#pce1b6ac46f)" style="fill: #eaf2fb; fill-opacity: 0.5"/>
    <path d="M 86.429603 71.113581 
L 87.790718 71.547369 
L 89.157026 71.991831 
L 90.528127 72.470671 
L 91.839894 72.724974 
L 93.149099 72.726006 
L 94.456348 72.509645 
L 93.09388 71.747673 
L 91.735284 71.000549 
L 90.380755 70.259147 
L 89.067098 70.699392 
L 87.750233 70.992239 
z
" clip-path="url(#pce1b6ac46f)" style="fill: #eaf2fb; fill-opacity: 0.5"/>
    <path d="M 70.316343 71.113581 
L 71.641504 71.043206 
L 72.97217 70.768057 
L 74.309473 70.285771 
L 75.671287 70.40996 
L 77.025655 70.47039 
L 78.372973 70.440186 
L 77.032137 70.302706 
L 75.697139 70.050779 
L 74.367331 69.685233 
L 73.022347 70.197468 
L 71.672058 70.669361 
z
" clip-path="url(#pce1b6ac46f)" style="fill: #e3eef9; fill-opacity: 0.5"/>
    <path d="M 78.372973 70.440186 
L 79.720291 70.47039 
L 81.074659 70.40996 
L 82.436473 70.285771 
L 83.773776 70.768057 
L 85.104442 71.043206 
L 86.429603 71.113581 
L 85.073888 70.669361 
L 83.723599 70.197468 
L 82.378615 69.685233 
L 81.048807 70.050779 
L 79.713808 70.302706 
z
" clip-path="url(#pce1b6ac46f)" style="fill: #e3eef9; fill-opacity: 0.5"/>
    <path d="M 50.161875 76.468967 
L 51.458662 77.075893 
L 52.755221 77.54707 
L 54.051012 77.843271 
L 55.43005 76.838071 
L 56.807104 75.882172 
L 58.181922 74.975567 
L 56.882175 74.68666 
L 55.582648 74.22274 
L 54.283663 73.623034 
L 52.9127 74.554293 
L 51.538747 75.502934 
z
" clip-path="url(#pce1b6ac46f)" style="fill: #f0f6fd; fill-opacity: 0.5"/>
    <path d="M 98.564024 74.975567 
L 99.938842 75.882172 
L 101.315896 76.838071 
L 102.694934 77.843271 
L 103.990725 77.54707 
L 105.287284 77.075893 
L 106.584071 76.468967 
L 105.207199 75.502934 
L 103.833246 74.554293 
L 102.462283 73.623034 
L 101.163298 74.22274 
L 99.863771 74.68666 
z
" clip-path="url(#pce1b6ac46f)" style="fill: #f0f6fd; fill-opacity: 0.5"/>
    <path d="M 58.181922 74.975567 
L 59.48174 75.045926 
L 60.781743 74.852244 
L 62.082415 74.350617 
L 63.463765 73.628448 
L 64.842517 73.008439 
L 66.217819 72.470671 
L 64.906052 72.724974 
L 63.596847 72.726006 
L 62.289598 72.509645 
L 60.923528 73.295886 
L 59.554183 74.115323 
z
" clip-path="url(#pce1b6ac46f)" style="fill: #e5eff9; fill-opacity: 0.5"/>
    <path d="M 90.528127 72.470671 
L 91.903429 73.008439 
L 93.282181 73.628448 
L 94.663531 74.350617 
L 95.964203 74.852244 
L 97.264206 75.045926 
L 98.564024 74.975567 
L 97.191763 74.115323 
L 95.822418 73.295886 
L 94.456348 72.509645 
L 93.149099 72.726006 
L 91.839894 72.724974 
z
" clip-path="url(#pce1b6ac46f)" style="fill: #e5eff9; fill-opacity: 0.5"/>
    <path d="M 46.013896 79.458193 
L 47.310706 80.132324 
L 48.607263 80.694702 
L 49.902937 81.112985 
L 51.287477 79.987294 
L 52.670142 78.894858 
L 54.051012 77.843271 
L 52.755221 77.54707 
L 51.458662 77.075893 
L 50.161875 76.468967 
L 48.782121 77.451469 
L 47.399477 78.448683 
z
" clip-path="url(#pce1b6ac46f)" style="fill: #f1f7fd; fill-opacity: 0.5"/>
    <path d="M 102.694934 77.843271 
L 104.075804 78.894858 
L 105.458469 79.987294 
L 106.843009 81.112985 
L 108.138683 80.694702 
L 109.43524 80.132324 
L 110.73205 79.458193 
L 109.346469 78.448683 
L 107.963825 77.451469 
L 106.584071 76.468967 
L 105.287284 77.075893 
L 103.990725 77.54707 
z
" clip-path="url(#pce1b6ac46f)" style="fill: #f1f7fd; fill-opacity: 0.5"/>
    <path d="M 66.217819 72.470671 
L 67.533098 71.932633 
L 68.853198 71.090571 
L 70.179754 69.939583 
L 71.563302 70.002181 
L 72.940075 70.134694 
L 74.309473 70.285771 
L 72.97217 70.768057 
L 71.641504 71.043206 
L 70.316343 71.113581 
L 68.955228 71.547369 
L 67.58892 71.991831 
z
" clip-path="url(#pce1b6ac46f)" style="fill: #d8e7f5; fill-opacity: 0.5"/>
    <path d="M 82.436473 70.285771 
L 83.805871 70.134694 
L 85.182644 70.002181 
L 86.566192 69.939583 
L 87.892748 71.090571 
L 89.212848 71.932633 
L 90.528127 72.470671 
L 89.157026 71.991831 
L 87.790718 71.547369 
L 86.429603 71.113581 
L 85.104442 71.043206 
L 83.773776 70.768057 
z
" clip-path="url(#pce1b6ac46f)" style="fill: #d8e7f5; fill-opacity: 0.5"/>
    <path d="M 41.838556 82.531577 
L 43.137362 83.30358 
L 44.436608 83.999999 
L 45.735743 84.598809 
L 47.127378 83.427998 
L 48.51633 82.263021 
L 49.902937 81.112985 
L 48.607263 80.694702 
L 47.310706 80.132324 
L 46.013896 79.458193 
L 44.625295 80.477163 
L 43.233559 81.502593 
z
" clip-path="url(#pce1b6ac46f)" style="fill: #f2f8fd; fill-opacity: 0.5"/>
    <path d="M 106.843009 81.112985 
L 108.229616 82.263021 
L 109.618568 83.427998 
L 111.010203 84.598809 
L 112.309338 83.999999 
L 113.608584 83.30358 
L 114.90739 82.531577 
L 113.512387 81.502593 
L 112.120651 80.477163 
L 110.73205 79.458193 
L 109.43524 80.132324 
L 108.138683 80.694702 
z
" clip-path="url(#pce1b6ac46f)" style="fill: #f2f8fd; fill-opacity: 0.5"/>
    <path d="M 54.051012 77.843271 
L 55.345637 77.920965 
L 56.638955 77.734661 
L 57.9312 77.240454 
L 59.315386 76.152773 
L 60.699349 75.189497 
L 62.082415 74.350617 
L 60.781743 74.852244 
L 59.48174 75.045926 
L 58.181922 74.975567 
L 56.807104 75.882172 
L 55.43005 76.838071 
z
" clip-path="url(#pce1b6ac46f)" style="fill: #e3eef9; fill-opacity: 0.5"/>
    <path d="M 94.663531 74.350617 
L 96.046597 75.189497 
L 97.43056 76.152773 
L 98.814746 77.240454 
L 100.106991 77.734661 
L 101.400309 77.920965 
L 102.694934 77.843271 
L 101.315896 76.838071 
L 99.938842 75.882172 
L 98.564024 74.975567 
L 97.264206 75.045926 
L 95.964203 74.852244 
z
" clip-path="url(#pce1b6ac46f)" style="fill: #e3eef9; fill-opacity: 0.5"/>
    <path d="M 74.309473 70.285771 
L 75.654626 69.608068 
L 77.008801 68.763536 
L 78.372973 67.799204 
L 79.737145 68.763536 
L 81.09132 69.608068 
L 82.436473 70.285771 
L 81.074659 70.40996 
L 79.720291 70.47039 
L 78.372973 70.440186 
L 77.025655 70.47039 
L 75.671287 70.40996 
z
" clip-path="url(#pce1b6ac46f)" style="fill: #d2e3f3; fill-opacity: 0.5"/>
    <path d="M 37.632589 85.616296 
L 38.934119 86.480833 
L 40.237102 87.303721 
L 41.541161 88.072547 
L 42.942974 86.926871 
L 44.34106 85.767321 
L 45.735743 84.598809 
L 44.436608 83.999999 
L 43.137362 83.30358 
L 41.838556 82.531577 
L 40.440148 83.561517 
L 39.038199 84.590281 
z
" clip-path="url(#pce1b6ac46f)" style="fill: #f5f9fe; fill-opacity: 0.5"/>
    <path d="M 111.010203 84.598809 
L 112.404886 85.767321 
L 113.802972 86.926871 
L 115.204785 88.072547 
L 116.508843 87.303721 
L 117.811827 86.480833 
L 119.113357 85.616296 
L 117.707747 84.590281 
L 116.305798 83.561517 
L 114.90739 82.531577 
L 113.608584 83.30358 
L 112.309338 83.999999 
z
" clip-path="url(#pce1b6ac46f)" style="fill: #f5f9fe; fill-opacity: 0.5"/>
    <path d="M 49.902937 81.112985 
L 51.197201 81.351341 
L 52.489733 81.372434 
L 53.78053 81.140387 
L 55.163723 79.751482 
L 56.547249 78.444869 
L 57.9312 77.240454 
L 56.638955 77.734661 
L 55.345637 77.920965 
L 54.051012 77.843271 
L 52.670142 78.894858 
L 51.287477 79.987294 
z
" clip-path="url(#pce1b6ac46f)" style="fill: #e5eff9; fill-opacity: 0.5"/>
    <path d="M 98.814746 77.240454 
L 100.198697 78.444869 
L 101.582223 79.751482 
L 102.965416 81.140387 
L 104.256213 81.372434 
L 105.548745 81.351341 
L 106.843009 81.112985 
L 105.458469 79.987294 
L 104.075804 78.894858 
L 102.694934 77.843271 
L 101.400309 77.920965 
L 100.106991 77.734661 
z
" clip-path="url(#pce1b6ac46f)" style="fill: #e5eff9; fill-opacity: 0.5"/>
    <path d="M 62.082415 74.350617 
L 63.384688 73.503464 
L 64.689996 72.285262 
L 66.000277 70.688898 
L 67.396736 70.235554 
L 68.790442 70.000367 
L 70.179754 69.939583 
L 68.853198 71.090571 
L 67.533098 71.932633 
L 66.217819 72.470671 
L 64.842517 73.008439 
L 63.463765 73.628448 
z
" clip-path="url(#pce1b6ac46f)" style="fill: #cee0f2; fill-opacity: 0.5"/>
    <path d="M 86.566192 69.939583 
L 87.955504 70.000367 
L 89.34921 70.235554 
L 90.745668 70.688898 
L 92.05595 72.285262 
L 93.361258 73.503464 
L 94.663531 74.350617 
L 93.282181 73.628448 
L 91.903429 73.008439 
L 90.528127 72.470671 
L 89.212848 71.932633 
L 87.892748 71.090571 
z
" clip-path="url(#pce1b6ac46f)" style="fill: #cee0f2; fill-opacity: 0.5"/>
    <path d="M 102.965416 81.140387 
L 104.348633 82.588281 
L 105.732456 84.070627 
L 107.117621 85.563735 
L 108.414104 85.405349 
L 109.711673 85.075675 
L 111.010203 84.598809 
L 109.618568 83.427998 
L 108.229616 82.263021 
L 106.843009 81.112985 
L 105.548745 81.351341 
L 104.256213 81.372434 
z
" clip-path="url(#pce1b6ac46f)" style="fill: #eaf2fb; fill-opacity: 0.5"/>
    <path d="M 45.735743 84.598809 
L 47.034273 85.075675 
L 48.331842 85.405349 
L 49.628325 85.563735 
L 51.01349 84.070627 
L 52.397313 82.588281 
L 53.78053 81.140387 
L 52.489733 81.372434 
L 51.197201 81.351341 
L 49.902937 81.112985 
L 48.51633 82.263021 
L 47.127378 83.427998 
z
" clip-path="url(#pce1b6ac46f)" style="fill: #eaf2fb; fill-opacity: 0.5"/>
    <path d="M 115.204785 88.072547 
L 116.610592 89.201253 
L 118.020595 90.311601 
L 119.434926 91.403661 
L 120.743182 90.514642 
L 122.049288 89.601688 
L 123.35304 88.670592 
L 121.935939 87.656662 
L 120.522729 86.638571 
L 119.113357 85.616296 
L 117.811827 86.480833 
L 116.508843 87.303721 
z
" clip-path="url(#pce1b6ac46f)" style="fill: #f6faff; fill-opacity: 0.5"/>
    <path d="M 33.392906 88.670592 
L 34.696658 89.601688 
L 36.002764 90.514642 
L 37.31102 91.403661 
L 38.725351 90.311601 
L 40.135354 89.201253 
L 41.541161 88.072547 
L 40.237102 87.303721 
L 38.934119 86.480833 
L 37.632589 85.616296 
L 36.223217 86.638571 
L 34.810007 87.656662 
z
" clip-path="url(#pce1b6ac46f)" style="fill: #f6faff; fill-opacity: 0.5"/>
    <path d="M 41.541161 88.072547 
L 42.845944 88.773633 
L 44.151177 89.392846 
L 45.456722 89.916787 
L 46.850721 88.501748 
L 48.241006 87.046515 
L 49.628325 85.563735 
L 48.331842 85.405349 
L 47.034273 85.075675 
L 45.735743 84.598809 
L 44.34106 85.767321 
L 42.942974 86.926871 
z
" clip-path="url(#pce1b6ac46f)" style="fill: #eef5fc; fill-opacity: 0.5"/>
    <path d="M 107.117621 85.563735 
L 108.504939 87.046515 
L 109.895225 88.501748 
L 111.289224 89.916787 
L 112.594768 89.392846 
L 113.900002 88.773633 
L 115.204785 88.072547 
L 113.802972 86.926871 
L 112.404886 85.767321 
L 111.010203 84.598809 
L 109.711673 85.075675 
L 108.414104 85.405349 
z
" clip-path="url(#pce1b6ac46f)" style="fill: #eef5fc; fill-opacity: 0.5"/>
    <path d="M 29.118056 91.692429 
L 30.423007 92.663018 
L 31.730896 93.628156 
L 33.04164 94.585606 
L 34.469156 93.538474 
L 35.892292 92.478628 
L 37.31102 91.403661 
L 36.002764 90.514642 
L 34.696658 89.601688 
L 33.392906 88.670592 
L 31.971885 89.68075 
L 30.546934 90.68777 
z
" clip-path="url(#pce1b6ac46f)" style="fill: #f7fbff; fill-opacity: 0.5"/>
    <path d="M 119.434926 91.403661 
L 120.853654 92.478628 
L 122.27679 93.538474 
L 123.704306 94.585606 
L 125.01505 93.628156 
L 126.322939 92.663018 
L 127.62789 91.692429 
L 126.199012 90.68777 
L 124.774061 89.68075 
L 123.35304 88.670592 
L 122.049288 89.601688 
L 120.743182 90.514642 
z
" clip-path="url(#pce1b6ac46f)" style="fill: #f7fbff; fill-opacity: 0.5"/>
    <path d="M 70.179754 69.939583 
L 71.514642 68.495284 
L 72.859821 66.798128 
L 74.217129 64.916109 
L 75.61272 65.788467 
L 76.998192 66.780403 
L 78.372973 67.799204 
L 77.008801 68.763536 
L 75.654626 69.608068 
L 74.309473 70.285771 
L 72.940075 70.134694 
L 71.563302 70.002181 
z
" clip-path="url(#pce1b6ac46f)" style="fill: #b5d4e9; fill-opacity: 0.5"/>
    <path d="M 78.372973 67.799204 
L 79.747753 66.780403 
L 81.133226 65.788467 
L 82.528817 64.916109 
L 83.886125 66.798128 
L 85.231304 68.495284 
L 86.566192 69.939583 
L 85.182644 70.002181 
L 83.805871 70.134694 
L 82.436473 70.285771 
L 81.09132 69.608068 
L 79.737145 68.763536 
z
" clip-path="url(#pce1b6ac46f)" style="fill: #b5d4e9; fill-opacity: 0.5"/>
    <path d="M 57.9312 77.240454 
L 59.223091 76.400757 
L 60.515918 75.190042 
L 61.811579 73.601177 
L 63.206103 72.363219 
L 64.602829 71.392465 
L 66.000277 70.688898 
L 64.689996 72.285262 
L 63.384688 73.503464 
L 62.082415 74.350617 
L 60.699349 75.189497 
L 59.315386 76.152773 
z
" clip-path="url(#pce1b6ac46f)" style="fill: #cadef0; fill-opacity: 0.5"/>
    <path d="M 90.745668 70.688898 
L 92.143117 71.392465 
L 93.539843 72.363219 
L 94.934367 73.601177 
L 96.230028 75.190042 
L 97.522855 76.400757 
L 98.814746 77.240454 
L 97.43056 76.152773 
L 96.046597 75.189497 
L 94.663531 74.350617 
L 93.361258 73.503464 
L 92.05595 72.285262 
z
" clip-path="url(#pce1b6ac46f)" style="fill: #cadef0; fill-opacity: 0.5"/>
    <path d="M 37.31102 91.403661 
L 38.62123 92.262372 
L 39.933237 93.084209 
L 41.246947 93.862979 
L 42.655233 92.599029 
L 44.058385 91.283715 
L 45.456722 89.916787 
L 44.151177 89.392846 
L 42.845944 88.773633 
L 41.541161 88.072547 
L 40.135354 89.201253 
L 38.725351 90.311601 
z
" clip-path="url(#pce1b6ac46f)" style="fill: #f3f8fe; fill-opacity: 0.5"/>
    <path d="M 111.289224 89.916787 
L 112.687561 91.283715 
L 114.090713 92.599029 
L 115.498999 93.862979 
L 116.812709 93.084209 
L 118.124716 92.262372 
L 119.434926 91.403661 
L 118.020595 90.311601 
L 116.610592 89.201253 
L 115.204785 88.072547 
L 113.900002 88.773633 
L 112.594768 89.392846 
z
" clip-path="url(#pce1b6ac46f)" style="fill: #f3f8fe; fill-opacity: 0.5"/>
    <path d="M 53.78053 81.140387 
L 55.070025 80.624733 
L 56.35918 79.805172 
L 57.649545 78.676779 
L 59.032994 76.795856 
L 60.420348 75.089405 
L 61.811579 73.601177 
L 60.515918 75.190042 
L 59.223091 76.400757 
L 57.9312 77.240454 
L 56.547249 78.444869 
L 55.163723 79.751482 
z
" clip-path="url(#pce1b6ac46f)" style="fill: #cee0f2; fill-opacity: 0.5"/>
    <path d="M 94.934367 73.601177 
L 96.325598 75.089405 
L 97.712952 76.795856 
L 99.096401 78.676779 
L 100.386766 79.805172 
L 101.675921 80.624733 
L 102.965416 81.140387 
L 101.582223 79.751482 
L 100.198697 78.444869 
L 98.814746 77.240454 
L 97.522855 76.400757 
L 96.230028 75.190042 
z
" clip-path="url(#pce1b6ac46f)" style="fill: #cee0f2; fill-opacity: 0.5"/>
    <path d="M 123.704306 94.585606 
L 125.136145 95.622579 
L 126.572235 96.651877 
L 128.012499 97.675759 
L 129.324199 96.684404 
L 130.632686 95.692361 
L 131.937937 94.700341 
L 130.49737 93.697947 
L 129.060682 92.695554 
L 127.62789 91.692429 
L 126.322939 92.663018 
L 125.01505 93.628156 
z
" clip-path="url(#pce1b6ac46f)" style="fill: #f7fbff; fill-opacity: 0.5"/>
    <path d="M 24.808009 94.700341 
L 26.11326 95.692361 
L 27.421747 96.684404 
L 28.733447 97.675759 
L 30.173711 96.651877 
L 31.609801 95.622579 
L 33.04164 94.585606 
L 31.730896 93.628156 
L 30.423007 92.663018 
L 29.118056 91.692429 
L 27.685264 92.695554 
L 26.248576 93.697947 
z
" clip-path="url(#pce1b6ac46f)" style="fill: #f7fbff; fill-opacity: 0.5"/>
    <path d="M 33.04164 94.585606 
L 34.355156 95.532911 
L 35.671376 96.467539 
L 36.990258 97.387113 
L 38.414444 96.251344 
L 39.833363 95.078709 
L 41.246947 93.862979 
L 39.933237 93.084209 
L 38.62123 92.262372 
L 37.31102 91.403661 
L 35.892292 92.478628 
L 34.469156 93.538474 
z
" clip-path="url(#pce1b6ac46f)" style="fill: #f5fafe; fill-opacity: 0.5"/>
    <path d="M 115.498999 93.862979 
L 116.912583 95.078709 
L 118.331502 96.251344 
L 119.755688 97.387113 
L 121.07457 96.467539 
L 122.39079 95.532911 
L 123.704306 94.585606 
L 122.27679 93.538474 
L 120.853654 92.478628 
L 119.434926 91.403661 
L 118.124716 92.262372 
L 116.812709 93.084209 
z
" clip-path="url(#pce1b6ac46f)" style="fill: #f5fafe; fill-opacity: 0.5"/>
    <path d="M 49.628325 85.563735 
L 50.923916 85.530631 
L 52.219218 85.292984 
L 53.515293 84.848422 
L 54.891842 82.755482 
L 56.269487 80.681147 
L 57.649545 78.676779 
L 56.35918 79.805172 
L 55.070025 80.624733 
L 53.78053 81.140387 
L 52.397313 82.588281 
L 51.01349 84.070627 
z
" clip-path="url(#pce1b6ac46f)" style="fill: #d8e7f5; fill-opacity: 0.5"/>
    <path d="M 99.096401 78.676779 
L 100.476459 80.681147 
L 101.854104 82.755482 
L 103.230653 84.848422 
L 104.526728 85.292984 
L 105.82203 85.530631 
L 107.117621 85.563735 
L 105.732456 84.070627 
L 104.348633 82.588281 
L 102.965416 81.140387 
L 101.675921 80.624733 
L 100.386766 79.805172 
z
" clip-path="url(#pce1b6ac46f)" style="fill: #d8e7f5; fill-opacity: 0.5"/>
    <path d="M 45.456722 89.916787 
L 46.762639 90.33436 
L 48.069242 90.63862 
L 49.377146 90.82875 
L 50.759434 88.916909 
L 52.138337 86.914518 
L 53.515293 84.848422 
L 52.219218 85.292984 
L 50.923916 85.530631 
L 49.628325 85.563735 
L 48.241006 87.046515 
L 46.850721 88.501748 
z
" clip-path="url(#pce1b6ac46f)" style="fill: #e3eef9; fill-opacity: 0.5"/>
    <path d="M 103.230653 84.848422 
L 104.607609 86.914518 
L 105.986512 88.916909 
L 107.3688 90.82875 
L 108.676704 90.63862 
L 109.983307 90.33436 
L 111.289224 89.916787 
L 109.895225 88.501748 
L 108.504939 87.046515 
L 107.117621 85.563735 
L 105.82203 85.530631 
L 104.526728 85.292984 
z
" clip-path="url(#pce1b6ac46f)" style="fill: #e3eef9; fill-opacity: 0.5"/>
    <path d="M 41.246947 93.862979 
L 42.562369 94.593595 
L 43.879643 95.272954 
L 45.199066 95.900843 
L 46.597768 94.323844 
L 47.990243 92.633437 
L 49.377146 90.82875 
L 48.069242 90.63862 
L 46.762639 90.33436 
L 45.456722 89.916787 
L 44.058385 91.283715 
L 42.655233 92.599029 
z
" clip-path="url(#pce1b6ac46f)" style="fill: #edf4fc; fill-opacity: 0.5"/>
    <path d="M 107.3688 90.82875 
L 108.755703 92.633437 
L 110.148178 94.323844 
L 111.54688 95.900843 
L 112.866303 95.272954 
L 114.183577 94.593595 
L 115.498999 93.862979 
L 114.090713 92.599029 
L 112.687561 91.283715 
L 111.289224 89.916787 
L 109.983307 90.33436 
L 108.676704 90.63862 
z
" clip-path="url(#pce1b6ac46f)" style="fill: #edf4fc; fill-opacity: 0.5"/>
    <path d="M 28.733447 97.675759 
L 30.048339 98.665646 
L 31.366403 99.653262 
L 32.687632 100.637851 
L 34.126669 99.574256 
L 35.560941 98.492617 
L 36.990258 97.387113 
L 35.671376 96.467539 
L 34.355156 95.532911 
L 33.04164 94.585606 
L 31.609801 95.622579 
L 30.173711 96.651877 
z
" clip-path="url(#pce1b6ac46f)" style="fill: #f7fbff; fill-opacity: 0.5"/>
    <path d="M 119.755688 97.387113 
L 121.185005 98.492617 
L 122.619277 99.574256 
L 124.058314 100.637851 
L 125.379543 99.653262 
L 126.697607 98.665646 
L 128.012499 97.675759 
L 126.572235 96.651877 
L 125.136145 95.622579 
L 123.704306 94.585606 
L 122.39079 95.532911 
L 121.07457 96.467539 
z
" clip-path="url(#pce1b6ac46f)" style="fill: #f7fbff; fill-opacity: 0.5"/>
    <path d="M 36.990258 97.387113 
L 38.311803 98.28969 
L 39.636066 99.174102 
L 40.963173 100.040309 
L 42.381776 98.746777 
L 43.793772 97.371437 
L 45.199066 95.900843 
L 43.879643 95.272954 
L 42.562369 94.593595 
L 41.246947 93.862979 
L 39.833363 95.078709 
L 38.414444 96.251344 
z
" clip-path="url(#pce1b6ac46f)" style="fill: #f3f8fe; fill-opacity: 0.5"/>
    <path d="M 111.54688 95.900843 
L 112.952174 97.371437 
L 114.36417 98.746777 
L 115.782773 100.040309 
L 117.10988 99.174102 
L 118.434143 98.28969 
L 119.755688 97.387113 
L 118.331502 96.251344 
L 116.912583 95.078709 
L 115.498999 93.862979 
L 114.183577 94.593595 
L 112.866303 95.272954 
z
" clip-path="url(#pce1b6ac46f)" style="fill: #f3f8fe; fill-opacity: 0.5"/>
    <path d="M 82.528817 64.916109 
L 83.933239 64.260632 
L 85.344506 63.915528 
L 86.760071 63.96145 
L 88.100409 66.462316 
L 89.42804 68.731984 
L 90.745668 70.688898 
L 89.34921 70.235554 
L 87.955504 70.000367 
L 86.566192 69.939583 
L 85.231304 68.495284 
L 83.886125 66.798128 
z
" clip-path="url(#pce1b6ac46f)" style="fill: #94c4df; fill-opacity: 0.5"/>
    <path d="M 66.000277 70.688898 
L 67.317906 68.731984 
L 68.645537 66.462316 
L 69.985875 63.96145 
L 71.40144 63.915528 
L 72.812707 64.260632 
L 74.217129 64.916109 
L 72.859821 66.798128 
L 71.514642 68.495284 
L 70.179754 69.939583 
L 68.790442 70.000367 
L 67.396736 70.235554 
z
" clip-path="url(#pce1b6ac46f)" style="fill: #94c4df; fill-opacity: 0.5"/>
    <path d="M 32.687632 100.637851 
L 34.012031 101.618802 
L 35.339625 102.59575 
L 36.670463 103.568695 
L 38.107175 102.438191 
L 39.538198 101.266209 
L 40.963173 100.040309 
L 39.636066 99.174102 
L 38.311803 98.28969 
L 36.990258 97.387113 
L 35.560941 98.492617 
L 34.126669 99.574256 
z
" clip-path="url(#pce1b6ac46f)" style="fill: #f6faff; fill-opacity: 0.5"/>
    <path d="M 115.782773 100.040309 
L 117.207748 101.266209 
L 118.638771 102.438191 
L 120.075483 103.568695 
L 121.406321 102.59575 
L 122.733915 101.618802 
L 124.058314 100.637851 
L 122.619277 99.574256 
L 121.185005 98.492617 
L 119.755688 97.387113 
L 118.434143 98.28969 
L 117.10988 99.174102 
z
" clip-path="url(#pce1b6ac46f)" style="fill: #f6faff; fill-opacity: 0.5"/>
    <path d="M 45.199066 95.900843 
L 46.521105 96.480803 
L 47.846389 97.020781 
L 49.175683 97.533442 
L 50.563686 95.505793 
L 51.944532 93.273523 
L 53.319362 90.834181 
L 52.000864 90.904779 
L 50.687278 90.911923 
L 49.377146 90.82875 
L 47.990243 92.633437 
L 46.597768 94.323844 
z
" clip-path="url(#pce1b6ac46f)" style="fill: #e3eef9; fill-opacity: 0.5"/>
    <path d="M 103.426584 90.834181 
L 104.801414 93.273523 
L 106.18226 95.505793 
L 107.570263 97.533442 
L 108.899557 97.020781 
L 110.224841 96.480803 
L 111.54688 95.900843 
L 110.148178 94.323844 
L 108.755703 92.633437 
L 107.3688 90.82875 
L 106.058668 90.911923 
L 104.745082 90.904779 
z
" clip-path="url(#pce1b6ac46f)" style="fill: #e3eef9; fill-opacity: 0.5"/>
    <path d="M 74.217129 64.916109 
L 75.588025 62.944978 
L 76.973326 61.00526 
L 78.372973 59.235679 
L 79.77262 61.00526 
L 81.157921 62.944978 
L 82.528817 64.916109 
L 81.133226 65.788467 
L 79.747753 66.780403 
L 78.372973 67.799204 
L 76.998192 66.780403 
L 75.61272 65.788467 
z
" clip-path="url(#pce1b6ac46f)" style="fill: #74b3d8; fill-opacity: 0.5"/>
    <path d="M 49.377146 90.82875 
L 50.687278 90.911923 
L 52.000864 90.904779 
L 53.319362 90.834181 
L 54.689776 88.199413 
L 56.057778 85.39775 
L 57.425658 82.476201 
L 56.116373 83.402244 
L 54.813686 84.208654 
L 53.515293 84.848422 
L 52.138337 86.914518 
L 50.759434 88.916909 
z
" clip-path="url(#pce1b6ac46f)" style="fill: #d2e3f3; fill-opacity: 0.5"/>
    <path d="M 99.320288 82.476201 
L 100.688168 85.39775 
L 102.05617 88.199413 
L 103.426584 90.834181 
L 104.745082 90.904779 
L 106.058668 90.911923 
L 107.3688 90.82875 
L 105.986512 88.916909 
L 104.607609 86.914518 
L 103.230653 84.848422 
L 101.93226 84.208654 
L 100.629573 83.402244 
z
" clip-path="url(#pce1b6ac46f)" style="fill: #d2e3f3; fill-opacity: 0.5"/>
    <path d="M 107.570263 97.533442 
L 108.966104 99.369605 
L 110.370054 101.034562 
L 111.782053 102.552475 
L 113.119163 101.725469 
L 114.452625 100.889725 
L 115.782773 100.040309 
L 114.36417 98.746777 
L 112.952174 97.371437 
L 111.54688 95.900843 
L 110.224841 96.480803 
L 108.899557 97.020781 
z
" clip-path="url(#pce1b6ac46f)" style="fill: #eef5fc; fill-opacity: 0.5"/>
    <path d="M 40.963173 100.040309 
L 42.293321 100.889725 
L 43.626783 101.725469 
L 44.963893 102.552475 
L 46.375892 101.034562 
L 47.779842 99.369605 
L 49.175683 97.533442 
L 47.846389 97.020781 
L 46.521105 96.480803 
L 45.199066 95.900843 
L 43.793772 97.371437 
L 42.381776 98.746777 
z
" clip-path="url(#pce1b6ac46f)" style="fill: #eef5fc; fill-opacity: 0.5"/>
    <path d="M 61.811579 73.601177 
L 63.112545 71.65176 
L 64.421742 69.389567 
L 65.742334 66.896138 
L 67.153499 65.435971 
L 68.56891 64.45776 
L 69.985875 63.96145 
L 68.645537 66.462316 
L 67.317906 68.731984 
L 66.000277 70.688898 
L 64.602829 71.392465 
L 63.206103 72.363219 
z
" clip-path="url(#pce1b6ac46f)" style="fill: #84bcdb; fill-opacity: 0.5"/>
    <path d="M 86.760071 63.96145 
L 88.177036 64.45776 
L 89.592447 65.435971 
L 91.003612 66.896138 
L 92.324204 69.389567 
L 93.633401 71.65176 
L 94.934367 73.601177 
L 93.539843 72.363219 
L 92.143117 71.392465 
L 90.745668 70.688898 
L 89.42804 68.731984 
L 88.100409 66.462316 
z
" clip-path="url(#pce1b6ac46f)" style="fill: #84bcdb; fill-opacity: 0.5"/>
    <path d="M 53.515293 84.848422 
L 54.813686 84.208654 
L 56.116373 83.402244 
L 57.425658 82.476201 
L 58.795813 79.500119 
L 60.170514 76.550897 
L 61.551655 73.721329 
L 60.242965 75.580664 
L 58.943258 77.255136 
L 57.649545 78.676779 
L 56.269487 80.681147 
L 54.891842 82.755482 
z
" clip-path="url(#pce1b6ac46f)" style="fill: #b5d4e9; fill-opacity: 0.5"/>
    <path d="M 95.194291 73.721329 
L 96.575432 76.550897 
L 97.950133 79.500119 
L 99.320288 82.476201 
L 100.629573 83.402244 
L 101.93226 84.208654 
L 103.230653 84.848422 
L 101.854104 82.755482 
L 100.476459 80.681147 
L 99.096401 78.676779 
L 97.802687 77.255136 
L 96.502981 75.580664 
z
" clip-path="url(#pce1b6ac46f)" style="fill: #b5d4e9; fill-opacity: 0.5"/>
    <path d="M 36.670463 103.568695 
L 38.004621 104.538104 
L 39.342203 105.504988 
L 40.683335 106.470941 
L 42.117121 105.247451 
L 43.54415 103.948647 
L 44.963893 102.552475 
L 43.626783 101.725469 
L 42.293321 100.889725 
L 40.963173 100.040309 
L 39.538198 101.266209 
L 38.107175 102.438191 
z
" clip-path="url(#pce1b6ac46f)" style="fill: #f5f9fe; fill-opacity: 0.5"/>
    <path d="M 111.782053 102.552475 
L 113.201795 103.948647 
L 114.628825 105.247451 
L 116.062611 106.470941 
L 117.403743 105.504988 
L 118.741325 104.538104 
L 120.075483 103.568695 
L 118.638771 102.438191 
L 117.207748 101.266209 
L 115.782773 100.040309 
L 114.452625 100.889725 
L 113.119163 101.725469 
z
" clip-path="url(#pce1b6ac46f)" style="fill: #f5f9fe; fill-opacity: 0.5"/>
    <path d="M 57.649545 78.676779 
L 58.943258 77.255136 
L 60.242965 75.580664 
L 61.551655 73.721329 
L 62.940512 71.108799 
L 64.337554 68.80685 
L 65.742334 66.896138 
L 64.421742 69.389567 
L 63.112545 71.65176 
L 61.811579 73.601177 
L 60.420348 75.089405 
L 59.032994 76.795856 
z
" clip-path="url(#pce1b6ac46f)" style="fill: #94c4df; fill-opacity: 0.5"/>
    <path d="M 91.003612 66.896138 
L 92.408392 68.80685 
L 93.805434 71.108799 
L 95.194291 73.721329 
L 96.502981 75.580664 
L 97.802687 77.255136 
L 99.096401 78.676779 
L 97.712952 76.795856 
L 96.325598 75.089405 
L 94.934367 73.601177 
L 93.633401 71.65176 
L 92.324204 69.389567 
z
" clip-path="url(#pce1b6ac46f)" style="fill: #94c4df; fill-opacity: 0.5"/>
    <path d="M 44.963893 102.552475 
L 46.30503 103.377421 
L 47.650586 104.208448 
L 49.000934 105.054668 
L 50.408196 103.298062 
L 51.806575 101.324451 
L 53.196149 99.097864 
L 51.849726 98.549599 
L 50.509839 98.036019 
L 49.175683 97.533442 
L 47.779842 99.369605 
L 46.375892 101.034562 
z
" clip-path="url(#pce1b6ac46f)" style="fill: #eaf2fb; fill-opacity: 0.5"/>
    <path d="M 103.549797 99.097864 
L 104.939371 101.324451 
L 106.33775 103.298062 
L 107.745011 105.054668 
L 109.09536 104.208448 
L 110.440916 103.377421 
L 111.782053 102.552475 
L 110.370054 101.034562 
L 108.966104 99.369605 
L 107.570263 97.533442 
L 106.236107 98.036019 
L 104.89622 98.549599 
z
" clip-path="url(#pce1b6ac46f)" style="fill: #eaf2fb; fill-opacity: 0.5"/>
    <path d="M 49.175683 97.533442 
L 50.509839 98.036019 
L 51.849726 98.549599 
L 53.196149 99.097864 
L 54.577452 96.587722 
L 55.951556 93.773598 
L 57.320121 90.650446 
L 55.977479 90.658632 
L 54.64437 90.736988 
L 53.319362 90.834181 
L 51.944532 93.273523 
L 50.563686 95.505793 
z
" clip-path="url(#pce1b6ac46f)" style="fill: #d8e7f5; fill-opacity: 0.5"/>
    <path d="M 99.425825 90.650446 
L 100.79439 93.773598 
L 102.168494 96.587722 
L 103.549797 99.097864 
L 104.89622 98.549599 
L 106.236107 98.036019 
L 107.570263 97.533442 
L 106.18226 95.505793 
L 104.801414 93.273523 
L 103.426584 90.834181 
L 102.101576 90.736988 
L 100.768467 90.658632 
z
" clip-path="url(#pce1b6ac46f)" style="fill: #d8e7f5; fill-opacity: 0.5"/>
    <path d="M 40.683335 106.470941 
L 42.028161 107.438111 
L 43.376832 108.409112 
L 44.729496 109.386866 
L 46.161035 108.064948 
L 47.585051 106.631671 
L 49.000934 105.054668 
L 47.650586 104.208448 
L 46.30503 103.377421 
L 44.963893 102.552475 
L 43.54415 103.948647 
L 42.117121 105.247451 
z
" clip-path="url(#pce1b6ac46f)" style="fill: #f2f8fd; fill-opacity: 0.5"/>
    <path d="M 107.745011 105.054668 
L 109.160895 106.631671 
L 110.584911 108.064948 
L 112.01645 109.386866 
L 113.369114 108.409112 
L 114.717785 107.438111 
L 116.062611 106.470941 
L 114.628825 105.247451 
L 113.201795 103.948647 
L 111.782053 102.552475 
L 110.440916 103.377421 
L 109.09536 104.208448 
z
" clip-path="url(#pce1b6ac46f)" style="fill: #f2f8fd; fill-opacity: 0.5"/>
    <path d="M 53.319362 90.834181 
L 54.64437 90.736988 
L 55.977479 90.658632 
L 57.320121 90.650446 
L 58.685374 87.233757 
L 60.05002 83.563911 
L 61.417055 79.708904 
L 60.073782 80.5425 
L 58.744 81.495842 
L 57.425658 82.476201 
L 56.057778 85.39775 
L 54.689776 88.199413 
z
" clip-path="url(#pce1b6ac46f)" style="fill: #b5d4e9; fill-opacity: 0.5"/>
    <path d="M 95.328891 79.708904 
L 96.695926 83.563911 
L 98.060572 87.233757 
L 99.425825 90.650446 
L 100.768467 90.658632 
L 102.101576 90.736988 
L 103.426584 90.834181 
L 102.05617 88.199413 
L 100.688168 85.39775 
L 99.320288 82.476201 
L 98.001946 81.495842 
L 96.672164 80.5425 
z
" clip-path="url(#pce1b6ac46f)" style="fill: #b5d4e9; fill-opacity: 0.5"/>
    <path d="M 49.000934 105.054668 
L 50.356393 105.925484 
L 51.717191 106.829804 
L 53.083444 107.775215 
L 54.490725 105.857632 
L 55.889492 103.676434 
L 57.280069 101.187596 
L 55.911021 100.395283 
L 54.549769 99.705332 
L 53.196149 99.097864 
L 51.806575 101.324451 
L 50.408196 103.298062 
z
" clip-path="url(#pce1b6ac46f)" style="fill: #e5eff9; fill-opacity: 0.5"/>
    <path d="M 99.465877 101.187596 
L 100.856454 103.676434 
L 102.255221 105.857632 
L 103.662502 107.775215 
L 105.028755 106.829804 
L 106.389553 105.925484 
L 107.745011 105.054668 
L 106.33775 103.298062 
L 104.939371 101.324451 
L 103.549797 99.097864 
L 102.196177 99.705332 
L 100.834924 100.395283 
z
" clip-path="url(#pce1b6ac46f)" style="fill: #e5eff9; fill-opacity: 0.5"/>
    <path d="M 44.729496 109.386866 
L 46.086281 110.374382 
L 47.447289 111.374509 
L 48.812581 112.389671 
L 50.243929 110.999823 
L 51.667726 109.474752 
L 53.083444 107.775215 
L 51.717191 106.829804 
L 50.356393 105.925484 
L 49.000934 105.054668 
L 47.585051 106.631671 
L 46.161035 108.064948 
z
" clip-path="url(#pce1b6ac46f)" style="fill: #f1f7fd; fill-opacity: 0.5"/>
    <path d="M 103.662502 107.775215 
L 105.07822 109.474752 
L 106.502017 110.999823 
L 107.933365 112.389671 
L 109.298657 111.374509 
L 110.659665 110.374382 
L 112.01645 109.386866 
L 110.584911 108.064948 
L 109.160895 106.631671 
L 107.745011 105.054668 
L 106.389553 105.925484 
L 105.028755 106.829804 
z
" clip-path="url(#pce1b6ac46f)" style="fill: #f1f7fd; fill-opacity: 0.5"/>
    <path d="M 69.985875 63.96145 
L 71.341368 61.345326 
L 72.713861 58.760993 
L 74.10426 56.378824 
L 75.536126 56.789659 
L 76.960082 57.783086 
L 78.372973 59.235679 
L 76.973326 61.00526 
L 75.588025 62.944978 
L 74.217129 64.916109 
L 72.812707 64.260632 
L 71.40144 63.915528 
z
" clip-path="url(#pce1b6ac46f)" style="fill: #4090c5; fill-opacity: 0.5"/>
    <path d="M 78.372973 59.235679 
L 79.785864 57.783086 
L 81.20982 56.789659 
L 82.641686 56.378824 
L 84.032085 58.760993 
L 85.404578 61.345326 
L 86.760071 63.96145 
L 85.344506 63.915528 
L 83.933239 64.260632 
L 82.528817 64.916109 
L 81.157921 62.944978 
L 79.77262 61.00526 
z
" clip-path="url(#pce1b6ac46f)" style="fill: #4090c5; fill-opacity: 0.5"/>
    <path d="M 53.196149 99.097864 
L 54.549769 99.705332 
L 55.911021 100.395283 
L 57.280069 101.187596 
L 58.66329 98.353373 
L 60.040573 95.148051 
L 61.413946 91.564311 
L 60.037983 91.055924 
L 58.673406 90.765878 
L 57.320121 90.650446 
L 55.951556 93.773598 
L 54.577452 96.587722 
z
" clip-path="url(#pce1b6ac46f)" style="fill: #cee0f2; fill-opacity: 0.5"/>
    <path d="M 95.332 91.564311 
L 96.705373 95.148051 
L 98.082656 98.353373 
L 99.465877 101.187596 
L 100.834924 100.395283 
L 102.196177 99.705332 
L 103.549797 99.097864 
L 102.168494 96.587722 
L 100.79439 93.773598 
L 99.425825 90.650446 
L 98.07254 90.765878 
L 96.707963 91.055924 
z
" clip-path="url(#pce1b6ac46f)" style="fill: #cee0f2; fill-opacity: 0.5"/>
    <path d="M 53.083444 107.775215 
L 54.455139 108.767248 
L 55.832138 109.808817 
L 57.214192 110.899914 
L 58.626693 108.97437 
L 60.032169 106.785304 
L 61.431194 104.288685 
L 60.040706 103.130487 
L 58.656773 102.096782 
L 57.280069 101.187596 
L 55.889492 103.676434 
L 54.490725 105.857632 
z
" clip-path="url(#pce1b6ac46f)" style="fill: #e3eef9; fill-opacity: 0.5"/>
    <path d="M 95.314752 104.288685 
L 96.713777 106.785304 
L 98.119253 108.97437 
L 99.531754 110.899914 
L 100.913808 109.808817 
L 102.290807 108.767248 
L 103.662502 107.775215 
L 102.255221 105.857632 
L 100.856454 103.676434 
L 99.465877 101.187596 
L 98.089173 102.096782 
L 96.70524 103.130487 
z
" clip-path="url(#pce1b6ac46f)" style="fill: #e3eef9; fill-opacity: 0.5"/>
    <path d="M 57.425658 82.476201 
L 58.744 81.495842 
L 60.073782 80.5425 
L 61.417055 79.708904 
L 62.789508 75.764577 
L 64.170121 71.851625 
L 65.561008 68.108989 
L 64.208097 69.85583 
L 62.872411 71.77287 
L 61.551655 73.721329 
L 60.170514 76.550897 
L 58.795813 79.500119 
z
" clip-path="url(#pce1b6ac46f)" style="fill: #74b3d8; fill-opacity: 0.5"/>
    <path d="M 91.184938 68.108989 
L 92.575825 71.851625 
L 93.956438 75.764577 
L 95.328891 79.708904 
L 96.672164 80.5425 
L 98.001946 81.495842 
L 99.320288 82.476201 
L 97.950133 79.500119 
L 96.575432 76.550897 
L 95.194291 73.721329 
L 93.873535 71.77287 
L 92.537849 69.85583 
z
" clip-path="url(#pce1b6ac46f)" style="fill: #74b3d8; fill-opacity: 0.5"/>
    <path d="M 48.812581 112.389671 
L 50.182172 113.421636 
L 51.556036 114.471339 
L 52.934102 115.538784 
L 54.367688 114.140716 
L 55.794487 112.607505 
L 57.214192 110.899914 
L 55.832138 109.808817 
L 54.455139 108.767248 
L 53.083444 107.775215 
L 51.667726 109.474752 
L 50.243929 110.999823 
z
" clip-path="url(#pce1b6ac46f)" style="fill: #f0f6fd; fill-opacity: 0.5"/>
    <path d="M 99.531754 110.899914 
L 100.951459 112.607505 
L 102.378258 114.140716 
L 103.811844 115.538784 
L 105.18991 114.471339 
L 106.563773 113.421636 
L 107.933365 112.389671 
L 106.502017 110.999823 
L 105.07822 109.474752 
L 103.662502 107.775215 
L 102.290807 108.767248 
L 100.913808 109.808817 
z
" clip-path="url(#pce1b6ac46f)" style="fill: #f0f6fd; fill-opacity: 0.5"/>
    <path d="M 57.280069 101.187596 
L 58.656773 102.096782 
L 60.040706 103.130487 
L 61.431194 104.288685 
L 62.824814 101.446752 
L 64.214594 98.233764 
L 65.602601 94.642366 
L 64.197515 93.349095 
L 62.800803 92.323063 
L 61.413946 91.564311 
L 60.040573 95.148051 
L 58.66329 98.353373 
z
" clip-path="url(#pce1b6ac46f)" style="fill: #cadef0; fill-opacity: 0.5"/>
    <path d="M 91.143345 94.642366 
L 92.531352 98.233764 
L 93.921132 101.446752 
L 95.314752 104.288685 
L 96.70524 103.130487 
L 98.089173 102.096782 
L 99.465877 101.187596 
L 98.082656 98.353373 
L 96.705373 95.148051 
L 95.332 91.564311 
L 93.945143 92.323063 
L 92.548431 93.349095 
z
" clip-path="url(#pce1b6ac46f)" style="fill: #cadef0; fill-opacity: 0.5"/>
    <path d="M 57.214192 110.899914 
L 58.600967 112.037614 
L 59.992081 113.216379 
L 61.387143 114.42862 
L 62.80747 112.647986 
L 64.222591 110.650601 
L 65.633196 108.400488 
L 64.228365 106.940914 
L 62.827391 105.563678 
L 61.431194 104.288685 
L 60.032169 106.785304 
L 58.626693 108.97437 
z
" clip-path="url(#pce1b6ac46f)" style="fill: #e5eff9; fill-opacity: 0.5"/>
    <path d="M 91.11275 108.400488 
L 92.523355 110.650601 
L 93.938476 112.647986 
L 95.358803 114.42862 
L 96.753865 113.216379 
L 98.144979 112.037614 
L 99.531754 110.899914 
L 98.119253 108.97437 
L 96.713777 106.785304 
L 95.314752 104.288685 
L 93.918555 105.563678 
L 92.517581 106.940914 
z
" clip-path="url(#pce1b6ac46f)" style="fill: #e5eff9; fill-opacity: 0.5"/>
    <path d="M 65.742334 66.896138 
L 67.077426 64.287411 
L 68.429695 61.710448 
L 69.80101 59.335652 
L 71.23258 57.627436 
L 72.668348 56.641874 
L 74.10426 56.378824 
L 72.713861 58.760993 
L 71.341368 61.345326 
L 69.985875 63.96145 
L 68.56891 64.45776 
L 67.153499 65.435971 
z
" clip-path="url(#pce1b6ac46f)" style="fill: #3080bd; fill-opacity: 0.5"/>
    <path d="M 82.641686 56.378824 
L 84.077598 56.641874 
L 85.513366 57.627436 
L 86.944936 59.335652 
L 88.316251 61.710448 
L 89.66852 64.287411 
L 91.003612 66.896138 
L 89.592447 65.435971 
L 88.177036 64.45776 
L 86.760071 63.96145 
L 85.404578 61.345326 
L 84.032085 58.760993 
z
" clip-path="url(#pce1b6ac46f)" style="fill: #3080bd; fill-opacity: 0.5"/>
    <path d="M 57.320121 90.650446 
L 58.673406 90.765878 
L 60.037983 91.055924 
L 61.413946 91.564311 
L 62.785995 87.619596 
L 64.159726 83.361599 
L 65.538329 78.87189 
L 64.14913 78.786491 
L 62.775283 79.09239 
L 61.417055 79.708904 
L 60.05002 83.563911 
L 58.685374 87.233757 
z
" clip-path="url(#pce1b6ac46f)" style="fill: #94c4df; fill-opacity: 0.5"/>
    <path d="M 91.207617 78.87189 
L 92.58622 83.361599 
L 93.95995 87.619596 
L 95.332 91.564311 
L 96.707963 91.055924 
L 98.07254 90.765878 
L 99.425825 90.650446 
L 98.060572 87.233757 
L 96.695926 83.563911 
L 95.328891 79.708904 
L 93.970663 79.09239 
L 92.596816 78.786491 
z
" clip-path="url(#pce1b6ac46f)" style="fill: #94c4df; fill-opacity: 0.5"/>
    <path d="M 52.934102 115.538784 
L 54.316267 116.623046 
L 55.702409 117.72237 
L 57.092398 118.834345 
L 58.529637 117.487696 
L 59.961239 116.029903 
L 61.387143 114.42862 
L 59.992081 113.216379 
L 58.600967 112.037614 
L 57.214192 110.899914 
L 55.794487 112.607505 
L 54.367688 114.140716 
z
" clip-path="url(#pce1b6ac46f)" style="fill: #f1f7fd; fill-opacity: 0.5"/>
    <path d="M 95.358803 114.42862 
L 96.784707 116.029903 
L 98.216309 117.487696 
L 99.653548 118.834345 
L 101.043537 117.72237 
L 102.429679 116.623046 
L 103.811844 115.538784 
L 102.378258 114.140716 
L 100.951459 112.607505 
L 99.531754 110.899914 
L 98.144979 112.037614 
L 96.753865 113.216379 
z
" clip-path="url(#pce1b6ac46f)" style="fill: #f1f7fd; fill-opacity: 0.5"/>
    <path d="M 61.551655 73.721329 
L 62.872411 71.77287 
L 64.208097 69.85583 
L 65.561008 68.108989 
L 66.963337 64.683724 
L 68.377099 61.718135 
L 69.80101 59.335652 
L 68.429695 61.710448 
L 67.077426 64.287411 
L 65.742334 66.896138 
L 64.337554 68.80685 
L 62.940512 71.108799 
z
" clip-path="url(#pce1b6ac46f)" style="fill: #4090c5; fill-opacity: 0.5"/>
    <path d="M 86.944936 59.335652 
L 88.368847 61.718135 
L 89.782609 64.683724 
L 91.184938 68.108989 
L 92.537849 69.85583 
L 93.873535 71.77287 
L 95.194291 73.721329 
L 93.805434 71.108799 
L 92.408392 68.80685 
L 91.003612 66.896138 
L 89.66852 64.287411 
L 88.316251 61.710448 
z
" clip-path="url(#pce1b6ac46f)" style="fill: #4090c5; fill-opacity: 0.5"/>
    <path d="M 61.431194 104.288685 
L 62.827391 105.563678 
L 64.228365 106.940914 
L 65.633196 108.400488 
L 67.040336 105.867035 
L 68.445429 103.029757 
L 69.850222 99.883528 
L 68.430761 97.947527 
L 67.014301 96.185876 
L 65.602601 94.642366 
L 64.214594 98.233764 
L 62.824814 101.446752 
z
" clip-path="url(#pce1b6ac46f)" style="fill: #cee0f2; fill-opacity: 0.5"/>
    <path d="M 86.895724 99.883528 
L 88.300517 103.029757 
L 89.70561 105.867035 
L 91.11275 108.400488 
L 92.517581 106.940914 
L 93.918555 105.563678 
L 95.314752 104.288685 
L 93.921132 101.446752 
L 92.531352 98.233764 
L 91.143345 94.642366 
L 89.731645 96.185876 
L 88.315185 97.947527 
z
" clip-path="url(#pce1b6ac46f)" style="fill: #cee0f2; fill-opacity: 0.5"/>
    <path d="M 61.387143 114.42862 
L 62.785791 115.665441 
L 64.187718 116.917458 
L 65.592697 118.175588 
L 67.01995 116.617246 
L 68.443307 114.912218 
L 69.86339 113.03634 
L 68.451277 111.472279 
L 67.041056 109.919112 
L 65.633196 108.400488 
L 64.222591 110.650601 
L 62.80747 112.647986 
z
" clip-path="url(#pce1b6ac46f)" style="fill: #eaf2fb; fill-opacity: 0.5"/>
    <path d="M 86.882556 113.03634 
L 88.302639 114.912218 
L 89.725996 116.617246 
L 91.153249 118.175588 
L 92.558228 116.917458 
L 93.960155 115.665441 
L 95.358803 114.42862 
L 93.938476 112.647986 
L 92.523355 110.650601 
L 91.11275 108.400488 
L 89.70489 109.919112 
L 88.294669 111.472279 
z
" clip-path="url(#pce1b6ac46f)" style="fill: #eaf2fb; fill-opacity: 0.5"/>
    <path d="M 65.633196 108.400488 
L 67.041056 109.919112 
L 68.451277 111.472279 
L 69.86339 113.03634 
L 71.281044 110.969308 
L 72.697322 108.697938 
L 74.113436 106.219705 
L 72.692487 104.072004 
L 71.271177 101.942841 
L 69.850222 99.883528 
L 68.445429 103.029757 
L 67.040336 105.867035 
z
" clip-path="url(#pce1b6ac46f)" style="fill: #d8e7f5; fill-opacity: 0.5"/>
    <path d="M 82.63251 106.219705 
L 84.048623 108.697938 
L 85.464902 110.969308 
L 86.882556 113.03634 
L 88.294669 111.472279 
L 89.70489 109.919112 
L 91.11275 108.400488 
L 89.70561 105.867035 
L 88.300517 103.029757 
L 86.895724 99.883528 
L 85.474769 101.942841 
L 84.053459 104.072004 
z
" clip-path="url(#pce1b6ac46f)" style="fill: #d8e7f5; fill-opacity: 0.5"/>
    <path d="M 91.153249 118.175588 
L 92.584809 119.612536 
L 94.020908 120.952441 
L 95.461639 122.217335 
L 96.862505 121.084769 
L 98.259835 119.956141 
L 99.653548 118.834345 
L 98.216309 117.487696 
L 96.784707 116.029903 
L 95.358803 114.42862 
L 93.960155 115.665441 
L 92.558228 116.917458 
z
" clip-path="url(#pce1b6ac46f)" style="fill: #f2f8fd; fill-opacity: 0.5"/>
    <path d="M 57.092398 118.834345 
L 58.486111 119.956141 
L 59.883441 121.084769 
L 61.284307 122.217335 
L 62.725038 120.952441 
L 64.161137 119.612536 
L 65.592697 118.175588 
L 64.187718 116.917458 
L 62.785791 115.665441 
L 61.387143 114.42862 
L 59.961239 116.029903 
L 58.529637 117.487696 
z
" clip-path="url(#pce1b6ac46f)" style="fill: #f2f8fd; fill-opacity: 0.5"/>
    <path d="M 69.86339 113.03634 
L 71.277133 114.590258 
L 72.692445 116.116865 
L 74.109428 117.603566 
L 75.532122 115.970618 
L 76.953073 114.224625 
L 78.372973 112.364666 
L 76.95345 110.397804 
L 75.53373 108.340564 
L 74.113436 106.219705 
L 72.697322 108.697938 
L 71.281044 110.969308 
z
" clip-path="url(#pce1b6ac46f)" style="fill: #e3eef9; fill-opacity: 0.5"/>
    <path d="M 78.372973 112.364666 
L 79.792873 114.224625 
L 81.213824 115.970618 
L 82.636518 117.603566 
L 84.053501 116.116865 
L 85.468813 114.590258 
L 86.882556 113.03634 
L 85.464902 110.969308 
L 84.048623 108.697938 
L 82.63251 106.219705 
L 81.212216 108.340564 
L 79.792496 110.397804 
z
" clip-path="url(#pce1b6ac46f)" style="fill: #e3eef9; fill-opacity: 0.5"/>
    <path d="M 74.113436 106.219705 
L 75.53373 108.340564 
L 76.95345 110.397804 
L 78.372973 112.364666 
L 79.792496 110.397804 
L 81.212216 108.340564 
L 82.63251 106.219705 
L 81.215291 103.546156 
L 79.795766 100.705707 
L 78.372973 97.745253 
L 76.95018 100.705707 
L 75.530655 103.546156 
z
" clip-path="url(#pce1b6ac46f)" style="fill: #d2e3f3; fill-opacity: 0.5"/>
    <path d="M 65.592697 118.175588 
L 67.000585 119.431726 
L 68.411326 120.679236 
L 69.824937 121.91323 
L 71.25633 120.562569 
L 72.684347 119.130496 
L 74.109428 117.603566 
L 72.692445 116.116865 
L 71.277133 114.590258 
L 69.86339 113.03634 
L 68.443307 114.912218 
L 67.01995 116.617246 
z
" clip-path="url(#pce1b6ac46f)" style="fill: #eef5fc; fill-opacity: 0.5"/>
    <path d="M 82.636518 117.603566 
L 84.061599 119.130496 
L 85.489616 120.562569 
L 86.921009 121.91323 
L 88.33462 120.679236 
L 89.745361 119.431726 
L 91.153249 118.175588 
L 89.725996 116.617246 
L 88.302639 114.912218 
L 86.882556 113.03634 
L 85.468813 114.590258 
L 84.053501 116.116865 
z
" clip-path="url(#pce1b6ac46f)" style="fill: #eef5fc; fill-opacity: 0.5"/>
    <path d="M 74.109428 117.603566 
L 75.528305 119.042487 
L 76.949376 120.430158 
L 78.372973 121.766853 
L 79.79657 120.430158 
L 81.217641 119.042487 
L 82.636518 117.603566 
L 81.213824 115.970618 
L 79.792873 114.224625 
L 78.372973 112.364666 
L 76.953073 114.224625 
L 75.532122 115.970618 
z
" clip-path="url(#pce1b6ac46f)" style="fill: #edf4fc; fill-opacity: 0.5"/>
    <path d="M 61.413946 91.564311 
L 62.800803 92.323063 
L 64.197515 93.349095 
L 65.602601 94.642366 
L 66.991324 90.68995 
L 68.383498 86.424161 
L 69.781853 81.926519 
L 68.357068 80.426174 
L 66.941662 79.407958 
L 65.538329 78.87189 
L 64.159726 83.361599 
L 62.785995 87.619596 
z
" clip-path="url(#pce1b6ac46f)" style="fill: #84bcdb; fill-opacity: 0.5"/>
    <path d="M 86.964093 81.926519 
L 88.362448 86.424161 
L 89.754622 90.68995 
L 91.143345 94.642366 
L 92.548431 93.349095 
L 93.945143 92.323063 
L 95.332 91.564311 
L 93.95995 87.619596 
L 92.58622 83.361599 
L 91.207617 78.87189 
L 89.804284 79.407958 
L 88.388878 80.426174 
z
" clip-path="url(#pce1b6ac46f)" style="fill: #84bcdb; fill-opacity: 0.5"/>
    <path d="M 69.850222 99.883528 
L 71.271177 101.942841 
L 72.692487 104.072004 
L 74.113436 106.219705 
L 75.530655 103.546156 
L 76.95018 100.705707 
L 78.372973 97.745253 
L 76.946361 94.730043 
L 75.51596 91.741405 
L 74.082497 88.872116 
L 72.666824 92.750633 
L 71.256681 96.443731 
z
" clip-path="url(#pce1b6ac46f)" style="fill: #b5d4e9; fill-opacity: 0.5"/>
    <path d="M 78.372973 97.745253 
L 79.795766 100.705707 
L 81.215291 103.546156 
L 82.63251 106.219705 
L 84.053459 104.072004 
L 85.474769 101.942841 
L 86.895724 99.883528 
L 85.489265 96.443731 
L 84.079122 92.750633 
L 82.663449 88.872116 
L 81.229986 91.741405 
L 79.799585 94.730043 
z
" clip-path="url(#pce1b6ac46f)" style="fill: #b5d4e9; fill-opacity: 0.5"/>
    <path d="M 74.10426 56.378824 
L 75.512252 54.380234 
L 76.936161 52.941771 
L 78.372973 52.217355 
L 79.809785 52.941771 
L 81.233694 54.380234 
L 82.641686 56.378824 
L 81.20982 56.789659 
L 79.785864 57.783086 
L 78.372973 59.235679 
L 76.960082 57.783086 
L 75.536126 56.789659 
z
" clip-path="url(#pce1b6ac46f)" style="fill: #105ba4; fill-opacity: 0.5"/>
    <path d="M 61.284307 122.217335 
L 62.688658 123.351251 
L 64.096473 124.484397 
L 65.507757 125.615213 
L 66.950827 124.426494 
L 68.389842 123.19664 
L 69.824937 121.91323 
L 68.411326 120.679236 
L 67.000585 119.431726 
L 65.592697 118.175588 
L 64.161137 119.612536 
L 62.725038 120.952441 
z
" clip-path="url(#pce1b6ac46f)" style="fill: #f5f9fe; fill-opacity: 0.5"/>
    <path d="M 86.921009 121.91323 
L 88.356104 123.19664 
L 89.795119 124.426494 
L 91.238189 125.615213 
L 92.649473 124.484397 
L 94.057288 123.351251 
L 95.461639 122.217335 
L 94.020908 120.952441 
L 92.584809 119.612536 
L 91.153249 118.175588 
L 89.745361 119.431726 
L 88.33462 120.679236 
z
" clip-path="url(#pce1b6ac46f)" style="fill: #f5f9fe; fill-opacity: 0.5"/>
    <path d="M 69.824937 121.91323 
L 71.241494 123.130632 
L 72.661113 124.330072 
L 74.083931 125.511627 
L 75.516928 124.301911 
L 76.946525 123.055728 
L 78.372973 121.766853 
L 76.949376 120.430158 
L 75.528305 119.042487 
L 74.109428 117.603566 
L 72.684347 119.130496 
L 71.25633 120.562569 
z
" clip-path="url(#pce1b6ac46f)" style="fill: #f3f8fe; fill-opacity: 0.5"/>
    <path d="M 78.372973 121.766853 
L 79.799421 123.055728 
L 81.229018 124.301911 
L 82.662015 125.511627 
L 84.084833 124.330072 
L 85.504452 123.130632 
L 86.921009 121.91323 
L 85.489616 120.562569 
L 84.061599 119.130496 
L 82.636518 117.603566 
L 81.217641 119.042487 
L 79.79657 120.430158 
z
" clip-path="url(#pce1b6ac46f)" style="fill: #f3f8fe; fill-opacity: 0.5"/>
    <path d="M 65.602601 94.642366 
L 67.014301 96.185876 
L 68.430761 97.947527 
L 69.850222 99.883528 
L 71.256681 96.443731 
L 72.666824 92.750633 
L 74.082497 88.872116 
L 72.647448 86.219594 
L 71.212991 83.877472 
L 69.781853 81.926519 
L 68.383498 86.424161 
L 66.991324 90.68995 
z
" clip-path="url(#pce1b6ac46f)" style="fill: #94c4df; fill-opacity: 0.5"/>
    <path d="M 82.663449 88.872116 
L 84.079122 92.750633 
L 85.489265 96.443731 
L 86.895724 99.883528 
L 88.315185 97.947527 
L 89.731645 96.185876 
L 91.143345 94.642366 
L 89.754622 90.68995 
L 88.362448 86.424161 
L 86.964093 81.926519 
L 85.532955 83.877472 
L 84.098498 86.219594 
z
" clip-path="url(#pce1b6ac46f)" style="fill: #94c4df; fill-opacity: 0.5"/>
    <path d="M 61.417055 79.708904 
L 62.775283 79.09239 
L 64.14913 78.786491 
L 65.538329 78.87189 
L 66.924864 74.266555 
L 68.321893 69.692909 
L 69.731093 65.321661 
L 68.322918 65.709 
L 66.932537 66.679285 
L 65.561008 68.108989 
L 64.170121 71.851625 
L 62.789508 75.764577 
z
" clip-path="url(#pce1b6ac46f)" style="fill: #4090c5; fill-opacity: 0.5"/>
    <path d="M 87.014852 65.321661 
L 88.424053 69.692909 
L 89.821082 74.266555 
L 91.207617 78.87189 
L 92.596816 78.786491 
L 93.970663 79.09239 
L 95.328891 79.708904 
L 93.956438 75.764577 
L 92.575825 71.851625 
L 91.184938 68.108989 
L 89.813409 66.679285 
L 88.423028 65.709 
z
" clip-path="url(#pce1b6ac46f)" style="fill: #4090c5; fill-opacity: 0.5"/>
    <path d="M 65.507757 125.615213 
L 66.922539 126.742716 
L 68.340864 127.866469 
L 69.762786 128.986501 
L 71.206989 127.847824 
L 72.647335 126.691468 
L 74.083931 125.511627 
L 72.661113 124.330072 
L 71.241494 123.130632 
L 69.824937 121.91323 
L 68.389842 123.19664 
L 66.950827 124.426494 
z
" clip-path="url(#pce1b6ac46f)" style="fill: #f6faff; fill-opacity: 0.5"/>
    <path d="M 82.662015 125.511627 
L 84.098611 126.691468 
L 85.538957 127.847824 
L 86.98316 128.986501 
L 88.405082 127.866469 
L 89.823407 126.742716 
L 91.238189 125.615213 
L 89.795119 124.426494 
L 88.356104 123.19664 
L 86.921009 121.91323 
L 85.504452 123.130632 
L 84.084833 124.330072 
z
" clip-path="url(#pce1b6ac46f)" style="fill: #f6faff; fill-opacity: 0.5"/>
    <path d="M 74.083931 125.511627 
L 75.510093 126.676502 
L 76.939733 127.826669 
L 78.372973 128.964532 
L 79.806213 127.826669 
L 81.235853 126.676502 
L 82.662015 125.511627 
L 81.229018 124.301911 
L 79.799421 123.055728 
L 78.372973 121.766853 
L 76.946525 123.055728 
L 75.516928 124.301911 
z
" clip-path="url(#pce1b6ac46f)" style="fill: #f5fafe; fill-opacity: 0.5"/>
    <path d="M 74.082497 88.872116 
L 75.51596 91.741405 
L 76.946361 94.730043 
L 78.372973 97.745253 
L 79.799585 94.730043 
L 81.229986 91.741405 
L 82.663449 88.872116 
L 81.240842 84.903936 
L 79.810603 80.96675 
L 78.372973 77.199524 
L 76.935343 80.96675 
L 75.505104 84.903936 
z
" clip-path="url(#pce1b6ac46f)" style="fill: #74b3d8; fill-opacity: 0.5"/>
    <path d="M 69.762786 128.986501 
L 71.188364 130.103202 
L 72.617657 131.217211 
L 74.050718 132.329305 
L 75.495299 131.213483 
L 76.936029 130.092644 
L 78.372973 128.964532 
L 76.939733 127.826669 
L 75.510093 126.676502 
L 74.083931 125.511627 
L 72.647335 126.691468 
L 71.206989 127.847824 
z
" clip-path="url(#pce1b6ac46f)" style="fill: #f7fbff; fill-opacity: 0.5"/>
    <path d="M 78.372973 128.964532 
L 79.809917 130.092644 
L 81.250647 131.213483 
L 82.695228 132.329305 
L 84.128289 131.217211 
L 85.557582 130.103202 
L 86.98316 128.986501 
L 85.538957 127.847824 
L 84.098611 126.691468 
L 82.662015 125.511627 
L 81.235853 126.676502 
L 79.806213 127.826669 
z
" clip-path="url(#pce1b6ac46f)" style="fill: #f7fbff; fill-opacity: 0.5"/>
    <path d="M 65.561008 68.108989 
L 66.932537 66.679285 
L 68.322918 65.709 
L 69.731093 65.321661 
L 71.15294 61.334542 
L 72.58649 57.908307 
L 74.029349 55.196889 
L 72.602248 55.913578 
L 71.192087 57.344492 
L 69.80101 59.335652 
L 68.377099 61.718135 
L 66.963337 64.683724 
z
" clip-path="url(#pce1b6ac46f)" style="fill: #105ba4; fill-opacity: 0.5"/>
    <path d="M 82.716597 55.196889 
L 84.159456 57.908307 
L 85.593006 61.334542 
L 87.014852 65.321661 
L 88.423028 65.709 
L 89.813409 66.679285 
L 91.184938 68.108989 
L 89.782609 64.683724 
L 88.368847 61.718135 
L 86.944936 59.335652 
L 85.553859 57.344492 
L 84.143698 55.913578 
z
" clip-path="url(#pce1b6ac46f)" style="fill: #105ba4; fill-opacity: 0.5"/>
    <path d="M 69.80101 59.335652 
L 71.192087 57.344492 
L 72.602248 55.913578 
L 74.029349 55.196889 
L 75.477844 53.314316 
L 76.927383 52.321209 
L 78.372973 52.217355 
L 76.936161 52.941771 
L 75.512252 54.380234 
L 74.10426 56.378824 
L 72.668348 56.641874 
L 71.23258 57.627436 
z
" clip-path="url(#pce1b6ac46f)" style="fill: #08478d; fill-opacity: 0.5"/>
    <path d="M 78.372973 52.217355 
L 79.818563 52.321209 
L 81.268102 53.314316 
L 82.716597 55.196889 
L 84.143698 55.913578 
L 85.553859 57.344492 
L 86.944936 59.335652 
L 85.513366 57.627436 
L 84.077598 56.641874 
L 82.641686 56.378824 
L 81.233694 54.380234 
L 79.809785 52.941771 
z
" clip-path="url(#pce1b6ac46f)" style="fill: #08478d; fill-opacity: 0.5"/>
    <path d="M 65.538329 78.87189 
L 66.941662 79.407958 
L 68.357068 80.426174 
L 69.781853 81.926519 
L 71.188796 77.313077 
L 72.606052 72.731139 
L 74.034339 68.351433 
L 72.590513 66.618523 
L 71.154747 65.608623 
L 69.731093 65.321661 
L 68.321893 69.692909 
L 66.924864 74.266555 
z
" clip-path="url(#pce1b6ac46f)" style="fill: #3080bd; fill-opacity: 0.5"/>
    <path d="M 82.711607 68.351433 
L 84.139894 72.731139 
L 85.55715 77.313077 
L 86.964093 81.926519 
L 88.388878 80.426174 
L 89.804284 79.407958 
L 91.207617 78.87189 
L 89.821082 74.266555 
L 88.424053 69.692909 
L 87.014852 65.321661 
L 85.591199 65.608623 
L 84.155433 66.618523 
z
" clip-path="url(#pce1b6ac46f)" style="fill: #3080bd; fill-opacity: 0.5"/>
    <path d="M 69.781853 81.926519 
L 71.212991 83.877472 
L 72.647448 86.219594 
L 74.082497 88.872116 
L 75.505104 84.903936 
L 76.935343 80.96675 
L 78.372973 77.199524 
L 76.929278 73.749401 
L 75.481941 70.758836 
L 74.034339 68.351433 
L 72.606052 72.731139 
L 71.188796 77.313077 
z
" clip-path="url(#pce1b6ac46f)" style="fill: #4090c5; fill-opacity: 0.5"/>
    <path d="M 78.372973 77.199524 
L 79.810603 80.96675 
L 81.240842 84.903936 
L 82.663449 88.872116 
L 84.098498 86.219594 
L 85.532955 83.877472 
L 86.964093 81.926519 
L 85.55715 77.313077 
L 84.139894 72.731139 
L 82.711607 68.351433 
L 81.264005 70.758836 
L 79.816668 73.749401 
z
" clip-path="url(#pce1b6ac46f)" style="fill: #4090c5; fill-opacity: 0.5"/>
    <path d="M 74.050718 132.329305 
L 75.487597 133.440311 
L 76.928337 134.551031 
L 78.372973 135.662196 
L 79.817609 134.551031 
L 81.258349 133.440311 
L 82.695228 132.329305 
L 81.250647 131.213483 
L 79.809917 130.092644 
L 78.372973 128.964532 
L 76.936029 130.092644 
L 75.495299 131.213483 
z
" clip-path="url(#pce1b6ac46f)" style="fill: #f7fbff; fill-opacity: 0.5"/>
    <path d="M 74.034339 68.351433 
L 75.481941 70.758836 
L 76.929278 73.749401 
L 78.372973 77.199524 
L 79.816668 73.749401 
L 81.264005 70.758836 
L 82.711607 68.351433 
L 81.272843 64.355747 
L 79.825544 60.920912 
L 78.372973 58.200954 
L 76.920402 60.920912 
L 75.473103 64.355747 
z
" clip-path="url(#pce1b6ac46f)" style="fill: #105ba4; fill-opacity: 0.5"/>
    <path d="M 69.731093 65.321661 
L 71.154747 65.608623 
L 72.590513 66.618523 
L 74.034339 68.351433 
L 75.473103 64.355747 
L 76.920402 60.920912 
L 78.372973 58.200954 
L 76.919451 56.309987 
L 75.469911 55.308694 
L 74.029349 55.196889 
L 72.58649 57.908307 
L 71.15294 61.334542 
z
" clip-path="url(#pce1b6ac46f)" style="fill: #08478d; fill-opacity: 0.5"/>
    <path d="M 78.372973 58.200954 
L 79.825544 60.920912 
L 81.272843 64.355747 
L 82.711607 68.351433 
L 84.155433 66.618523 
L 85.591199 65.608623 
L 87.014852 65.321661 
L 85.593006 61.334542 
L 84.159456 57.908307 
L 82.716597 55.196889 
L 81.276035 55.308694 
L 79.826495 56.309987 
z
" clip-path="url(#pce1b6ac46f)" style="fill: #08478d; fill-opacity: 0.5"/>
    <path d="M 74.029349 55.196889 
L 75.469911 55.308694 
L 76.919451 56.309987 
L 78.372973 58.200954 
L 79.826495 56.309987 
L 81.276035 55.308694 
L 82.716597 55.196889 
L 81.268102 53.314316 
L 79.818563 52.321209 
L 78.372973 52.217355 
L 76.927383 52.321209 
L 75.477844 53.314316 
z
" clip-path="url(#pce1b6ac46f)" style="fill: #08306b; fill-opacity: 0.5"/>
   </g>
  </g>
 </g>
 <defs>
  <clipPath id="pce1b6ac46f">
   <rect x="7.2" y="7.2" width="138.6" height="138.6"/>
  </clipPath>
 </defs>
</svg>
