<?xml version="1.0" encoding="utf-8" standalone="no"?>
<!DOCTYPE svg PUBLIC "-//W3C//DTD SVG 1.1//EN"
  "http://www.w3.org/Graphics/SVG/1.1/DTD/svg11.dtd">
<svg xmlns:xlink="http://www.w3.org/1999/xlink" width="586.85pt" height="194.779844pt" viewBox="0 0 586.85 194.779844" xmlns="http://www.w3.org/2000/svg" version="1.1">
 <metadata>
  <rdf:RDF xmlns:dc="http://purl.org/dc/elements/1.1/" xmlns:cc="http://creativecommons.org/ns#" xmlns:rdf="http://www.w3.org/1999/02/22-rdf-syntax-ns#">
   <cc:Work>
    <dc:type rdf:resource="http://purl.org/dc/dcmitype/StillImage"/>
    <dc:date>2024-04-08T08:32:02.433111</dc:date>
    <dc:format>image/svg+xml</dc:format>
    <dc:creator>
     <cc:Agent>
      <dc:title>Matplotlib v3.8.0, https://matplotlib.org/</dc:title>
     </cc:Agent>
    </dc:creator>
   </cc:Work>
  </rdf:RDF>
 </metadata>
 <defs>
  <style type="text/css">*{stroke-linejoin: round; stroke-linecap: butt}</style>
 </defs>
 <g id="figure_1">
  <g id="patch_1">
   <path d="M 0 194.779844 
L 586.85 194.779844 
L 586.85 0 
L 0 0 
z
" style="fill: #ffffff"/>
  </g>
  <g id="axes_1">
   <g id="patch_2">
    <path d="M 21.65 173.52 
L 579.65 173.52 
L 579.65 7.2 
L 21.65 7.2 
z
" style="fill: #eaeaf2"/>
   </g>
   <g id="matplotlib.axis_1">
    <g id="text_1">
     <!-- $s_1$ -->
     <g style="fill: #262626" transform="translate(295.15 185.393594) scale(0.11 -0.11)">
      <defs>
       <path id="DejaVuSans-Oblique-73" d="M 3200 3397 
L 3091 2853 
Q 2863 2978 2609 3040 
Q 2356 3103 2088 3103 
Q 1634 3103 1373 2948 
Q 1113 2794 1113 2528 
Q 1113 2219 1719 2053 
Q 1766 2041 1788 2034 
L 1972 1978 
Q 2547 1819 2739 1644 
Q 2931 1469 2931 1166 
Q 2931 609 2489 259 
Q 2047 -91 1331 -91 
Q 1053 -91 747 -37 
Q 441 16 72 128 
L 184 722 
Q 500 559 806 475 
Q 1113 391 1394 391 
Q 1816 391 2080 572 
Q 2344 753 2344 1031 
Q 2344 1331 1650 1516 
L 1591 1531 
L 1394 1581 
Q 956 1697 753 1886 
Q 550 2075 550 2369 
Q 550 2928 970 3256 
Q 1391 3584 2113 3584 
Q 2397 3584 2667 3537 
Q 2938 3491 3200 3397 
z
" transform="scale(0.015625)"/>
       <path id="DejaVuSans-31" d="M 794 531 
L 1825 531 
L 1825 4091 
L 703 3866 
L 703 4441 
L 1819 4666 
L 2450 4666 
L 2450 531 
L 3481 531 
L 3481 0 
L 794 0 
L 794 531 
z
" transform="scale(0.015625)"/>
      </defs>
      <use xlink:href="#DejaVuSans-Oblique-73"/>
      <use xlink:href="#DejaVuSans-31" transform="translate(52.099609 -16.40625) scale(0.7)"/>
     </g>
    </g>
   </g>
   <g id="matplotlib.axis_2">
    <g id="text_2">
     <!-- Similarity with $x_i$ -->
     <g style="fill: #262626" transform="translate(15.23 130.015) rotate(-90) scale(0.11 -0.11)">
      <defs>
       <path id="ArialMT-53" d="M 288 1472 
L 859 1522 
Q 900 1178 1048 958 
Q 1197 738 1509 602 
Q 1822 466 2213 466 
Q 2559 466 2825 569 
Q 3091 672 3220 851 
Q 3350 1031 3350 1244 
Q 3350 1459 3225 1620 
Q 3100 1781 2813 1891 
Q 2628 1963 1997 2114 
Q 1366 2266 1113 2400 
Q 784 2572 623 2826 
Q 463 3081 463 3397 
Q 463 3744 659 4045 
Q 856 4347 1234 4503 
Q 1613 4659 2075 4659 
Q 2584 4659 2973 4495 
Q 3363 4331 3572 4012 
Q 3781 3694 3797 3291 
L 3216 3247 
Q 3169 3681 2898 3903 
Q 2628 4125 2100 4125 
Q 1550 4125 1298 3923 
Q 1047 3722 1047 3438 
Q 1047 3191 1225 3031 
Q 1400 2872 2139 2705 
Q 2878 2538 3153 2413 
Q 3553 2228 3743 1945 
Q 3934 1663 3934 1294 
Q 3934 928 3725 604 
Q 3516 281 3123 101 
Q 2731 -78 2241 -78 
Q 1619 -78 1198 103 
Q 778 284 539 648 
Q 300 1013 288 1472 
z
" transform="scale(0.015625)"/>
       <path id="ArialMT-69" d="M 425 3934 
L 425 4581 
L 988 4581 
L 988 3934 
L 425 3934 
z
M 425 0 
L 425 3319 
L 988 3319 
L 988 0 
L 425 0 
z
" transform="scale(0.015625)"/>
       <path id="ArialMT-6d" d="M 422 0 
L 422 3319 
L 925 3319 
L 925 2853 
Q 1081 3097 1340 3245 
Q 1600 3394 1931 3394 
Q 2300 3394 2536 3241 
Q 2772 3088 2869 2813 
Q 3263 3394 3894 3394 
Q 4388 3394 4653 3120 
Q 4919 2847 4919 2278 
L 4919 0 
L 4359 0 
L 4359 2091 
Q 4359 2428 4304 2576 
Q 4250 2725 4106 2815 
Q 3963 2906 3769 2906 
Q 3419 2906 3187 2673 
Q 2956 2441 2956 1928 
L 2956 0 
L 2394 0 
L 2394 2156 
Q 2394 2531 2256 2718 
Q 2119 2906 1806 2906 
Q 1569 2906 1367 2781 
Q 1166 2656 1075 2415 
Q 984 2175 984 1722 
L 984 0 
L 422 0 
z
" transform="scale(0.015625)"/>
       <path id="ArialMT-6c" d="M 409 0 
L 409 4581 
L 972 4581 
L 972 0 
L 409 0 
z
" transform="scale(0.015625)"/>
       <path id="ArialMT-61" d="M 2588 409 
Q 2275 144 1986 34 
Q 1697 -75 1366 -75 
Q 819 -75 525 192 
Q 231 459 231 875 
Q 231 1119 342 1320 
Q 453 1522 633 1644 
Q 813 1766 1038 1828 
Q 1203 1872 1538 1913 
Q 2219 1994 2541 2106 
Q 2544 2222 2544 2253 
Q 2544 2597 2384 2738 
Q 2169 2928 1744 2928 
Q 1347 2928 1158 2789 
Q 969 2650 878 2297 
L 328 2372 
Q 403 2725 575 2942 
Q 747 3159 1072 3276 
Q 1397 3394 1825 3394 
Q 2250 3394 2515 3294 
Q 2781 3194 2906 3042 
Q 3031 2891 3081 2659 
Q 3109 2516 3109 2141 
L 3109 1391 
Q 3109 606 3145 398 
Q 3181 191 3288 0 
L 2700 0 
Q 2613 175 2588 409 
z
M 2541 1666 
Q 2234 1541 1622 1453 
Q 1275 1403 1131 1340 
Q 988 1278 909 1158 
Q 831 1038 831 891 
Q 831 666 1001 516 
Q 1172 366 1500 366 
Q 1825 366 2078 508 
Q 2331 650 2450 897 
Q 2541 1088 2541 1459 
L 2541 1666 
z
" transform="scale(0.015625)"/>
       <path id="ArialMT-72" d="M 416 0 
L 416 3319 
L 922 3319 
L 922 2816 
Q 1116 3169 1280 3281 
Q 1444 3394 1641 3394 
Q 1925 3394 2219 3213 
L 2025 2691 
Q 1819 2813 1613 2813 
Q 1428 2813 1281 2702 
Q 1134 2591 1072 2394 
Q 978 2094 978 1738 
L 978 0 
L 416 0 
z
" transform="scale(0.015625)"/>
       <path id="ArialMT-74" d="M 1650 503 
L 1731 6 
Q 1494 -44 1306 -44 
Q 1000 -44 831 53 
Q 663 150 594 308 
Q 525 466 525 972 
L 525 2881 
L 113 2881 
L 113 3319 
L 525 3319 
L 525 4141 
L 1084 4478 
L 1084 3319 
L 1650 3319 
L 1650 2881 
L 1084 2881 
L 1084 941 
Q 1084 700 1114 631 
Q 1144 563 1211 522 
Q 1278 481 1403 481 
Q 1497 481 1650 503 
z
" transform="scale(0.015625)"/>
       <path id="ArialMT-79" d="M 397 -1278 
L 334 -750 
Q 519 -800 656 -800 
Q 844 -800 956 -737 
Q 1069 -675 1141 -563 
Q 1194 -478 1313 -144 
Q 1328 -97 1363 -6 
L 103 3319 
L 709 3319 
L 1400 1397 
Q 1534 1031 1641 628 
Q 1738 1016 1872 1384 
L 2581 3319 
L 3144 3319 
L 1881 -56 
Q 1678 -603 1566 -809 
Q 1416 -1088 1222 -1217 
Q 1028 -1347 759 -1347 
Q 597 -1347 397 -1278 
z
" transform="scale(0.015625)"/>
       <path id="ArialMT-20" transform="scale(0.015625)"/>
       <path id="ArialMT-77" d="M 1034 0 
L 19 3319 
L 600 3319 
L 1128 1403 
L 1325 691 
Q 1338 744 1497 1375 
L 2025 3319 
L 2603 3319 
L 3100 1394 
L 3266 759 
L 3456 1400 
L 4025 3319 
L 4572 3319 
L 3534 0 
L 2950 0 
L 2422 1988 
L 2294 2553 
L 1622 0 
L 1034 0 
z
" transform="scale(0.015625)"/>
       <path id="ArialMT-68" d="M 422 0 
L 422 4581 
L 984 4581 
L 984 2938 
Q 1378 3394 1978 3394 
Q 2347 3394 2619 3248 
Q 2891 3103 3008 2847 
Q 3125 2591 3125 2103 
L 3125 0 
L 2563 0 
L 2563 2103 
Q 2563 2525 2380 2717 
Q 2197 2909 1863 2909 
Q 1613 2909 1392 2779 
Q 1172 2650 1078 2428 
Q 984 2206 984 1816 
L 984 0 
L 422 0 
z
" transform="scale(0.015625)"/>
       <path id="DejaVuSans-Oblique-78" d="M 3841 3500 
L 2234 1784 
L 3219 0 
L 2559 0 
L 1819 1388 
L 531 0 
L -166 0 
L 1556 1844 
L 641 3500 
L 1300 3500 
L 1972 2234 
L 3144 3500 
L 3841 3500 
z
" transform="scale(0.015625)"/>
       <path id="DejaVuSans-Oblique-69" d="M 1172 4863 
L 1747 4863 
L 1606 4134 
L 1031 4134 
L 1172 4863 
z
M 909 3500 
L 1484 3500 
L 800 0 
L 225 0 
L 909 3500 
z
" transform="scale(0.015625)"/>
      </defs>
      <use xlink:href="#ArialMT-53" transform="translate(0 0.203125)"/>
      <use xlink:href="#ArialMT-69" transform="translate(66.699219 0.203125)"/>
      <use xlink:href="#ArialMT-6d" transform="translate(88.916016 0.203125)"/>
      <use xlink:href="#ArialMT-69" transform="translate(172.216797 0.203125)"/>
      <use xlink:href="#ArialMT-6c" transform="translate(194.433594 0.203125)"/>
      <use xlink:href="#ArialMT-61" transform="translate(216.650391 0.203125)"/>
      <use xlink:href="#ArialMT-72" transform="translate(272.265625 0.203125)"/>
      <use xlink:href="#ArialMT-69" transform="translate(305.566406 0.203125)"/>
      <use xlink:href="#ArialMT-74" transform="translate(327.783203 0.203125)"/>
      <use xlink:href="#ArialMT-79" transform="translate(355.566406 0.203125)"/>
      <use xlink:href="#ArialMT-20" transform="translate(405.566406 0.203125)"/>
      <use xlink:href="#ArialMT-77" transform="translate(433.349609 0.203125)"/>
      <use xlink:href="#ArialMT-69" transform="translate(505.566406 0.203125)"/>
      <use xlink:href="#ArialMT-74" transform="translate(527.783203 0.203125)"/>
      <use xlink:href="#ArialMT-68" transform="translate(555.566406 0.203125)"/>
      <use xlink:href="#ArialMT-20" transform="translate(611.181641 0.203125)"/>
      <use xlink:href="#DejaVuSans-Oblique-78" transform="translate(638.964844 0.203125)"/>
      <use xlink:href="#DejaVuSans-Oblique-69" transform="translate(698.144531 -16.203125) scale(0.7)"/>
     </g>
    </g>
   </g>
   <g id="PathCollection_1">
    <defs>
     <path id="m7f0a72a8fa" d="M 0 5 
C 1.326016 5 2.597899 4.473168 3.535534 3.535534 
C 4.473168 2.597899 5 1.326016 5 0 
C 5 -1.326016 4.473168 -2.597899 3.535534 -3.535534 
C 2.597899 -4.473168 1.326016 -5 0 -5 
C -1.326016 -5 -2.597899 -4.473168 -3.535534 -3.535534 
C -4.473168 -2.597899 -5 -1.326016 -5 0 
C -5 1.326016 -4.473168 2.597899 -3.535534 3.535534 
C -2.597899 4.473168 -1.326016 5 0 5 
z
" style="stroke: #4c72b0; stroke-width: 0.3"/>
    </defs>
    <g clip-path="url(#p4fee8a7045)">
     <use xlink:href="#m7f0a72a8fa" x="68.334126" y="165.96" style="fill: #4c72b0; stroke: #4c72b0; stroke-width: 0.3"/>
    </g>
   </g>
   <g id="PathCollection_2">
    <defs>
     <path id="m46c674d38b" d="M 0 5 
C 1.326016 5 2.597899 4.473168 3.535534 3.535534 
C 4.473168 2.597899 5 1.326016 5 0 
C 5 -1.326016 4.473168 -2.597899 3.535534 -3.535534 
C 2.597899 -4.473168 1.326016 -5 0 -5 
C -1.326016 -5 -2.597899 -4.473168 -3.535534 -3.535534 
C -4.473168 -2.597899 -5 -1.326016 -5 0 
C -5 1.326016 -4.473168 2.597899 -3.535534 3.535534 
C -2.597899 4.473168 -1.326016 5 0 5 
z
" style="stroke: #000000; stroke-opacity: 0.5; stroke-width: 0.3"/>
    </defs>
    <g clip-path="url(#p4fee8a7045)">
     <use xlink:href="#m46c674d38b" x="68.334126" y="165.96" style="fill: #55a868; fill-opacity: 0.5; stroke: #000000; stroke-opacity: 0.5; stroke-width: 0.3"/>
     <use xlink:href="#m46c674d38b" x="149.041538" y="165.96" style="fill: #55a868; fill-opacity: 0.5; stroke: #000000; stroke-opacity: 0.5; stroke-width: 0.3"/>
     <use xlink:href="#m46c674d38b" x="146.681072" y="165.96" style="fill: #55a868; fill-opacity: 0.5; stroke: #000000; stroke-opacity: 0.5; stroke-width: 0.3"/>
     <use xlink:href="#m46c674d38b" x="170.443234" y="165.96" style="fill: #55a868; fill-opacity: 0.5; stroke: #000000; stroke-opacity: 0.5; stroke-width: 0.3"/>
    </g>
   </g>
   <g id="PathCollection_3">
    <defs>
     <path id="me6962b16a6" d="M 0 5 
C 1.326016 5 2.597899 4.473168 3.535534 3.535534 
C 4.473168 2.597899 5 1.326016 5 0 
C 5 -1.326016 4.473168 -2.597899 3.535534 -3.535534 
C 2.597899 -4.473168 1.326016 -5 0 -5 
C -1.326016 -5 -2.597899 -4.473168 -3.535534 -3.535534 
C -4.473168 -2.597899 -5 -1.326016 -5 0 
C -5 1.326016 -4.473168 2.597899 -3.535534 3.535534 
C -2.597899 4.473168 -1.326016 5 0 5 
z
" style="stroke: #000000; stroke-opacity: 0.5; stroke-width: 0.3"/>
    </defs>
    <g clip-path="url(#p4fee8a7045)">
     <use xlink:href="#me6962b16a6" x="445.77928" y="165.96" style="fill: #c44e52; fill-opacity: 0.5; stroke: #000000; stroke-opacity: 0.5; stroke-width: 0.3"/>
     <use xlink:href="#me6962b16a6" x="509.961254" y="165.96" style="fill: #c44e52; fill-opacity: 0.5; stroke: #000000; stroke-opacity: 0.5; stroke-width: 0.3"/>
     <use xlink:href="#me6962b16a6" x="554.286364" y="165.96" style="fill: #c44e52; fill-opacity: 0.5; stroke: #000000; stroke-opacity: 0.5; stroke-width: 0.3"/>
     <use xlink:href="#me6962b16a6" x="397.774909" y="165.96" style="fill: #c44e52; fill-opacity: 0.5; stroke: #000000; stroke-opacity: 0.5; stroke-width: 0.3"/>
    </g>
   </g>
   <g id="line2d_1">
    <path d="M 47.013636 165.959957 
L 53.558109 165.851193 
L 54.826418 165.60269 
L 55.688868 165.205366 
L 56.348388 164.667055 
L 56.957176 163.88833 
L 57.565964 162.721149 
L 58.174752 161.019272 
L 58.783541 158.60605 
L 59.392329 155.279784 
L 60.051849 150.396647 
L 60.762102 143.355223 
L 61.523087 133.469304 
L 62.385537 119.16811 
L 63.450916 97.365421 
L 66.647054 28.372083 
L 67.306575 19.960094 
L 67.813898 16.110269 
L 68.169025 14.89654 
L 68.371954 14.767163 
L 68.524151 14.940853 
L 68.777813 15.743368 
L 69.132939 17.924371 
L 69.58953 22.455826 
L 70.198318 31.21095 
L 71.010036 46.705253 
L 72.430542 79.265239 
L 74.003244 113.851492 
L 75.017891 131.565979 
L 75.880341 143.060983 
L 76.692059 151.032723 
L 77.453044 156.354256 
L 78.163297 159.811028 
L 78.822817 162.016269 
L 79.482338 163.502524 
L 80.141858 164.472186 
L 80.852111 165.120853 
L 81.663829 165.541386 
L 82.678476 165.794953 
L 84.251178 165.925919 
L 88.360498 165.959745 
L 428.267216 165.96 
L 554.286364 165.96 
L 554.286364 165.96 
" clip-path="url(#p4fee8a7045)" style="fill: none; stroke: #4c72b0; stroke-opacity: 0.7; stroke-width: 1.75; stroke-linecap: round"/>
   </g>
   <g id="line2d_2">
    <path d="M 47.013636 35.908034 
L 49.702451 31.193882 
L 52.137603 27.351616 
L 54.420559 24.157235 
L 56.500585 21.61759 
L 58.428414 19.59849 
L 60.254779 17.996266 
L 61.979678 16.770172 
L 63.603113 15.877577 
L 65.175816 15.259076 
L 66.697787 14.894125 
L 68.219757 14.760647 
L 69.690995 14.852233 
L 71.212965 15.174775 
L 72.734936 15.7275 
L 74.307638 16.537765 
L 75.931074 17.624918 
L 77.655973 19.052856 
L 79.482338 20.862079 
L 81.410167 23.090791 
L 83.490193 25.844777 
L 85.722416 29.178359 
L 88.157569 33.225597 
L 90.846383 38.140494 
L 93.839592 44.087011 
L 97.340124 51.556625 
L 101.703105 61.424489 
L 109.414422 79.538614 
L 116.009627 94.780061 
L 120.524806 104.661749 
L 124.380464 112.5806 
L 127.931728 119.373989 
L 131.229331 125.211749 
L 134.374736 130.337138 
L 137.418677 134.877221 
L 140.361153 138.873754 
L 143.252897 142.432286 
L 146.093908 145.583046 
L 148.934919 148.406042 
L 151.775931 150.918641 
L 154.667674 153.177531 
L 157.559418 155.157236 
L 160.552627 156.936912 
L 163.6473 158.515882 
L 166.843438 159.897693 
L 170.242505 161.123027 
L 173.844501 162.184064 
L 177.750892 163.101325 
L 182.063141 163.881996 
L 186.933447 164.531882 
L 192.564737 165.052349 
L 199.362871 165.449351 
L 208.139567 165.727755 
L 221.025583 165.893415 
L 246.848347 165.95609 
L 496.096363 165.96 
L 554.286364 165.96 
L 554.286364 165.96 
" clip-path="url(#p4fee8a7045)" style="fill: none; stroke: #55a868; stroke-opacity: 0.7; stroke-width: 1.75; stroke-linecap: round"/>
   </g>
   <g id="patch_3">
    <path d="M 21.65 173.52 
L 21.65 7.2 
" style="fill: none"/>
   </g>
   <g id="patch_4">
    <path d="M 579.65 173.52 
L 579.65 7.2 
" style="fill: none"/>
   </g>
   <g id="patch_5">
    <path d="M 21.65 173.52 
L 579.65 173.52 
" style="fill: none"/>
   </g>
   <g id="patch_6">
    <path d="M 21.65 7.2 
L 579.65 7.2 
" style="fill: none"/>
   </g>
   <g id="text_3">
    <!-- $x_i$ -->
    <g style="fill: #262626" transform="translate(72.21804 158.4) scale(0.1 -0.1)">
     <use xlink:href="#DejaVuSans-Oblique-78" transform="translate(0 0.3125)"/>
     <use xlink:href="#DejaVuSans-Oblique-69" transform="translate(59.179688 -16.09375) scale(0.7)"/>
    </g>
   </g>
   <g id="legend_1">
    <g id="line2d_3">
     <path d="M 505.85 19.9125 
L 515.85 19.9125 
L 525.85 19.9125 
" style="fill: none; stroke: #4c72b0; stroke-opacity: 0.7; stroke-width: 1.75; stroke-linecap: round"/>
    </g>
    <g id="text_4">
     <!-- $\sigma_i = 0.1$ -->
     <g style="fill: #262626" transform="translate(533.85 23.4125) scale(0.1 -0.1)">
      <defs>
       <path id="DejaVuSans-Oblique-3c3" d="M 2219 3044 
Q 1744 3044 1422 2700 
Q 1081 2341 969 1747 
Q 844 1119 1044 756 
Q 1241 397 1706 397 
Q 2166 397 2503 759 
Q 2844 1122 2966 1747 
Q 3075 2319 2881 2700 
Q 2700 3044 2219 3044 
z
M 2309 3503 
L 4219 3500 
L 4106 2925 
L 3463 2925 
Q 3706 2438 3575 1747 
Q 3406 888 2884 400 
Q 2359 -91 1609 -91 
Q 856 -91 525 400 
Q 194 888 363 1747 
Q 528 2609 1050 3097 
Q 1484 3503 2309 3503 
z
" transform="scale(0.015625)"/>
       <path id="DejaVuSans-3d" d="M 678 2906 
L 4684 2906 
L 4684 2381 
L 678 2381 
L 678 2906 
z
M 678 1631 
L 4684 1631 
L 4684 1100 
L 678 1100 
L 678 1631 
z
" transform="scale(0.015625)"/>
       <path id="DejaVuSans-30" d="M 2034 4250 
Q 1547 4250 1301 3770 
Q 1056 3291 1056 2328 
Q 1056 1369 1301 889 
Q 1547 409 2034 409 
Q 2525 409 2770 889 
Q 3016 1369 3016 2328 
Q 3016 3291 2770 3770 
Q 2525 4250 2034 4250 
z
M 2034 4750 
Q 2819 4750 3233 4129 
Q 3647 3509 3647 2328 
Q 3647 1150 3233 529 
Q 2819 -91 2034 -91 
Q 1250 -91 836 529 
Q 422 1150 422 2328 
Q 422 3509 836 4129 
Q 1250 4750 2034 4750 
z
" transform="scale(0.015625)"/>
       <path id="DejaVuSans-2e" d="M 684 794 
L 1344 794 
L 1344 0 
L 684 0 
L 684 794 
z
" transform="scale(0.015625)"/>
      </defs>
      <use xlink:href="#DejaVuSans-Oblique-3c3" transform="translate(0 0.78125)"/>
      <use xlink:href="#DejaVuSans-Oblique-69" transform="translate(63.378906 -15.625) scale(0.7)"/>
      <use xlink:href="#DejaVuSans-3d" transform="translate(105.043945 0.78125)"/>
      <use xlink:href="#DejaVuSans-30" transform="translate(208.31543 0.78125)"/>
      <use xlink:href="#DejaVuSans-2e" transform="translate(271.938477 0.78125)"/>
      <use xlink:href="#DejaVuSans-31" transform="translate(303.725586 0.78125)"/>
     </g>
    </g>
    <g id="line2d_4">
     <path d="M 505.85 34.057813 
L 515.85 34.057813 
L 525.85 34.057813 
" style="fill: none; stroke: #55a868; stroke-opacity: 0.7; stroke-width: 1.75; stroke-linecap: round"/>
    </g>
    <g id="text_5">
     <!-- $\sigma_i = 1$ -->
     <g style="fill: #262626" transform="translate(533.85 37.557813) scale(0.1 -0.1)">
      <use xlink:href="#DejaVuSans-Oblique-3c3" transform="translate(0 0.09375)"/>
      <use xlink:href="#DejaVuSans-Oblique-69" transform="translate(63.378906 -16.3125) scale(0.7)"/>
      <use xlink:href="#DejaVuSans-3d" transform="translate(105.043945 0.09375)"/>
      <use xlink:href="#DejaVuSans-31" transform="translate(208.31543 0.09375)"/>
     </g>
    </g>
   </g>
  </g>
 </g>
 <defs>
  <clipPath id="p4fee8a7045">
   <rect x="21.65" y="7.2" width="558" height="166.32"/>
  </clipPath>
 </defs>
</svg>
