<?xml version="1.0" encoding="utf-8" standalone="no"?>
<!DOCTYPE svg PUBLIC "-//W3C//DTD SVG 1.1//EN"
  "http://www.w3.org/Graphics/SVG/1.1/DTD/svg11.dtd">
<svg xmlns:xlink="http://www.w3.org/1999/xlink" width="586.459844pt" height="194.779844pt" viewBox="0 0 586.459844 194.779844" xmlns="http://www.w3.org/2000/svg" version="1.1">
 <metadata>
  <rdf:RDF xmlns:dc="http://purl.org/dc/elements/1.1/" xmlns:cc="http://creativecommons.org/ns#" xmlns:rdf="http://www.w3.org/1999/02/22-rdf-syntax-ns#">
   <cc:Work>
    <dc:type rdf:resource="http://purl.org/dc/dcmitype/StillImage"/>
    <dc:date>2024-04-06T15:17:25.322388</dc:date>
    <dc:format>image/svg+xml</dc:format>
    <dc:creator>
     <cc:Agent>
      <dc:title>Matplotlib v3.8.0, https://matplotlib.org/</dc:title>
     </cc:Agent>
    </dc:creator>
   </cc:Work>
  </rdf:RDF>
 </metadata>
 <defs>
  <style type="text/css">*{stroke-linejoin: round; stroke-linecap: butt}</style>
 </defs>
 <g id="figure_1">
  <g id="patch_1">
   <path d="M 0 194.779844 
L 586.459844 194.779844 
L 586.459844 0 
L 0 0 
z
" style="fill: #ffffff"/>
  </g>
  <g id="axes_1">
   <g id="patch_2">
    <path d="M 21.259844 173.52 
L 579.259844 173.52 
L 579.259844 7.2 
L 21.259844 7.2 
z
" style="fill: #eaeaf2"/>
   </g>
   <g id="matplotlib.axis_1">
    <g id="text_1">
     <!-- $s_1$ -->
     <g style="fill: #262626" transform="translate(294.759844 185.393594) scale(0.11 -0.11)">
      <defs>
       <path id="DejaVuSans-Oblique-73" d="M 3200 3397 
L 3091 2853 
Q 2863 2978 2609 3040 
Q 2356 3103 2088 3103 
Q 1634 3103 1373 2948 
Q 1113 2794 1113 2528 
Q 1113 2219 1719 2053 
Q 1766 2041 1788 2034 
L 1972 1978 
Q 2547 1819 2739 1644 
Q 2931 1469 2931 1166 
Q 2931 609 2489 259 
Q 2047 -91 1331 -91 
Q 1053 -91 747 -37 
Q 441 16 72 128 
L 184 722 
Q 500 559 806 475 
Q 1113 391 1394 391 
Q 1816 391 2080 572 
Q 2344 753 2344 1031 
Q 2344 1331 1650 1516 
L 1591 1531 
L 1394 1581 
Q 956 1697 753 1886 
Q 550 2075 550 2369 
Q 550 2928 970 3256 
Q 1391 3584 2113 3584 
Q 2397 3584 2667 3537 
Q 2938 3491 3200 3397 
z
" transform="scale(0.015625)"/>
       <path id="DejaVuSans-31" d="M 794 531 
L 1825 531 
L 1825 4091 
L 703 3866 
L 703 4441 
L 1819 4666 
L 2450 4666 
L 2450 531 
L 3481 531 
L 3481 0 
L 794 0 
L 794 531 
z
" transform="scale(0.015625)"/>
      </defs>
      <use xlink:href="#DejaVuSans-Oblique-73"/>
      <use xlink:href="#DejaVuSans-31" transform="translate(52.099609 -16.40625) scale(0.7)"/>
     </g>
    </g>
   </g>
   <g id="matplotlib.axis_2">
    <g id="text_2">
     <!-- $s_2$ -->
     <g style="fill: #262626" transform="translate(15.073594 95.86) rotate(-90) scale(0.11 -0.11)">
      <defs>
       <path id="DejaVuSans-32" d="M 1228 531 
L 3431 531 
L 3431 0 
L 469 0 
L 469 531 
Q 828 903 1448 1529 
Q 2069 2156 2228 2338 
Q 2531 2678 2651 2914 
Q 2772 3150 2772 3378 
Q 2772 3750 2511 3984 
Q 2250 4219 1831 4219 
Q 1534 4219 1204 4116 
Q 875 4013 500 3803 
L 500 4441 
Q 881 4594 1212 4672 
Q 1544 4750 1819 4750 
Q 2544 4750 2975 4387 
Q 3406 4025 3406 3419 
Q 3406 3131 3298 2873 
Q 3191 2616 2906 2266 
Q 2828 2175 2409 1742 
Q 1991 1309 1228 531 
z
" transform="scale(0.015625)"/>
      </defs>
      <use xlink:href="#DejaVuSans-Oblique-73"/>
      <use xlink:href="#DejaVuSans-32" transform="translate(52.099609 -16.40625) scale(0.7)"/>
     </g>
    </g>
   </g>
   <g id="PathCollection_1">
    <defs>
     <path id="m8f65ff1e7a" d="M 0 5 
C 1.326016 5 2.597899 4.473168 3.535534 3.535534 
C 4.473168 2.597899 5 1.326016 5 0 
C 5 -1.326016 4.473168 -2.597899 3.535534 -3.535534 
C 2.597899 -4.473168 1.326016 -5 0 -5 
C -1.326016 -5 -2.597899 -4.473168 -3.535534 -3.535534 
C -4.473168 -2.597899 -5 -1.326016 -5 0 
C -5 1.326016 -4.473168 2.597899 -3.535534 3.535534 
C -2.597899 4.473168 -1.326016 5 0 5 
z
" style="stroke: #4c72b0; stroke-width: 0.3"/>
    </defs>
    <g clip-path="url(#pf77ab01482)">
     <use xlink:href="#m8f65ff1e7a" x="46.62348" y="92.481919" style="fill: #4c72b0; stroke: #4c72b0; stroke-width: 0.3"/>
    </g>
   </g>
   <g id="PathCollection_2">
    <defs>
     <path id="m20d74042ef" d="M 0 5 
C 1.326016 5 2.597899 4.473168 3.535534 3.535534 
C 4.473168 2.597899 5 1.326016 5 0 
C 5 -1.326016 4.473168 -2.597899 3.535534 -3.535534 
C 2.597899 -4.473168 1.326016 -5 0 -5 
C -1.326016 -5 -2.597899 -4.473168 -3.535534 -3.535534 
C -4.473168 -2.597899 -5 -1.326016 -5 0 
C -5 1.326016 -4.473168 2.597899 -3.535534 3.535534 
C -2.597899 4.473168 -1.326016 5 0 5 
z
" style="stroke: #55a868; stroke-opacity: 0.5; stroke-width: 0.3"/>
    </defs>
    <g clip-path="url(#pf77ab01482)">
     <use xlink:href="#m20d74042ef" x="46.62348" y="92.481919" style="fill: #55a868; fill-opacity: 0.5; stroke: #55a868; stroke-opacity: 0.5; stroke-width: 0.3"/>
     <use xlink:href="#m20d74042ef" x="171.477299" y="93.439788" style="fill: #55a868; fill-opacity: 0.5; stroke: #55a868; stroke-opacity: 0.5; stroke-width: 0.3"/>
     <use xlink:href="#m20d74042ef" x="110.451358" y="34.996141" style="fill: #55a868; fill-opacity: 0.5; stroke: #55a868; stroke-opacity: 0.5; stroke-width: 0.3"/>
     <use xlink:href="#m20d74042ef" x="121.387613" y="141.768825" style="fill: #55a868; fill-opacity: 0.5; stroke: #55a868; stroke-opacity: 0.5; stroke-width: 0.3"/>
    </g>
   </g>
   <g id="PathCollection_3">
    <defs>
     <path id="mcb01b0e237" d="M 0 5 
C 1.326016 5 2.597899 4.473168 3.535534 3.535534 
C 4.473168 2.597899 5 1.326016 5 0 
C 5 -1.326016 4.473168 -2.597899 3.535534 -3.535534 
C 2.597899 -4.473168 1.326016 -5 0 -5 
C -1.326016 -5 -2.597899 -4.473168 -3.535534 -3.535534 
C -4.473168 -2.597899 -5 -1.326016 -5 0 
C -5 1.326016 -4.473168 2.597899 -3.535534 3.535534 
C -2.597899 4.473168 -1.326016 5 0 5 
z
" style="stroke: #c44e52; stroke-opacity: 0.5; stroke-width: 0.3"/>
    </defs>
    <g clip-path="url(#pf77ab01482)">
     <use xlink:href="#mcb01b0e237" x="421.257584" y="14.76" style="fill: #c44e52; fill-opacity: 0.5; stroke: #c44e52; stroke-opacity: 0.5; stroke-width: 0.3"/>
     <use xlink:href="#mcb01b0e237" x="492.035238" y="60.388016" style="fill: #c44e52; fill-opacity: 0.5; stroke: #c44e52; stroke-opacity: 0.5; stroke-width: 0.3"/>
     <use xlink:href="#mcb01b0e237" x="491.536233" y="165.96" style="fill: #c44e52; fill-opacity: 0.5; stroke: #c44e52; stroke-opacity: 0.5; stroke-width: 0.3"/>
     <use xlink:href="#mcb01b0e237" x="553.896207" y="121.884302" style="fill: #c44e52; fill-opacity: 0.5; stroke: #c44e52; stroke-opacity: 0.5; stroke-width: 0.3"/>
    </g>
   </g>
   <g id="patch_3">
    <path d="M 21.259844 173.52 
L 21.259844 7.2 
" style="fill: none"/>
   </g>
   <g id="patch_4">
    <path d="M 579.259844 173.52 
L 579.259844 7.2 
" style="fill: none"/>
   </g>
   <g id="patch_5">
    <path d="M 21.259844 173.52 
L 579.259844 173.52 
" style="fill: none"/>
   </g>
   <g id="patch_6">
    <path d="M 21.259844 7.2 
L 579.259844 7.2 
" style="fill: none"/>
   </g>
   <g id="text_3">
    <!-- $x_i$ -->
    <g style="fill: #262626" transform="translate(50.65134 86.847742) scale(0.1 -0.1)">
     <defs>
      <path id="DejaVuSans-Oblique-78" d="M 3841 3500 
L 2234 1784 
L 3219 0 
L 2559 0 
L 1819 1388 
L 531 0 
L -166 0 
L 1556 1844 
L 641 3500 
L 1300 3500 
L 1972 2234 
L 3144 3500 
L 3841 3500 
z
" transform="scale(0.015625)"/>
      <path id="DejaVuSans-Oblique-69" d="M 1172 4863 
L 1747 4863 
L 1606 4134 
L 1031 4134 
L 1172 4863 
z
M 909 3500 
L 1484 3500 
L 800 0 
L 225 0 
L 909 3500 
z
" transform="scale(0.015625)"/>
     </defs>
     <use xlink:href="#DejaVuSans-Oblique-78" transform="translate(0 0.3125)"/>
     <use xlink:href="#DejaVuSans-Oblique-69" transform="translate(59.179688 -16.09375) scale(0.7)"/>
    </g>
   </g>
  </g>
 </g>
 <defs>
  <clipPath id="pf77ab01482">
   <rect x="21.259844" y="7.2" width="558" height="166.32"/>
  </clipPath>
 </defs>
</svg>
