<?xml version="1.0" encoding="utf-8" standalone="no"?>
<!DOCTYPE svg PUBLIC "-//W3C//DTD SVG 1.1//EN"
  "http://www.w3.org/Graphics/SVG/1.1/DTD/svg11.dtd">
<svg xmlns:xlink="http://www.w3.org/1999/xlink" width="572.4pt" height="194.779844pt" viewBox="0 0 572.4 194.779844" xmlns="http://www.w3.org/2000/svg" version="1.1">
 <metadata>
  <rdf:RDF xmlns:dc="http://purl.org/dc/elements/1.1/" xmlns:cc="http://creativecommons.org/ns#" xmlns:rdf="http://www.w3.org/1999/02/22-rdf-syntax-ns#">
   <cc:Work>
    <dc:type rdf:resource="http://purl.org/dc/dcmitype/StillImage"/>
    <dc:date>2024-04-06T17:25:00.260277</dc:date>
    <dc:format>image/svg+xml</dc:format>
    <dc:creator>
     <cc:Agent>
      <dc:title>Matplotlib v3.8.0, https://matplotlib.org/</dc:title>
     </cc:Agent>
    </dc:creator>
   </cc:Work>
  </rdf:RDF>
 </metadata>
 <defs>
  <style type="text/css">*{stroke-linejoin: round; stroke-linecap: butt}</style>
 </defs>
 <g id="figure_1">
  <g id="patch_1">
   <path d="M 0 194.779844 
L 572.4 194.779844 
L 572.4 0 
L 0 0 
z
" style="fill: #ffffff"/>
  </g>
  <g id="axes_1">
   <g id="patch_2">
    <path d="M 7.2 173.52 
L 565.2 173.52 
L 565.2 7.2 
L 7.2 7.2 
z
" style="fill: #eaeaf2"/>
   </g>
   <g id="matplotlib.axis_1">
    <g id="text_1">
     <!-- $s_1$ -->
     <g style="fill: #262626" transform="translate(280.7 185.393594) scale(0.11 -0.11)">
      <defs>
       <path id="DejaVuSans-Oblique-73" d="M 3200 3397 
L 3091 2853 
Q 2863 2978 2609 3040 
Q 2356 3103 2088 3103 
Q 1634 3103 1373 2948 
Q 1113 2794 1113 2528 
Q 1113 2219 1719 2053 
Q 1766 2041 1788 2034 
L 1972 1978 
Q 2547 1819 2739 1644 
Q 2931 1469 2931 1166 
Q 2931 609 2489 259 
Q 2047 -91 1331 -91 
Q 1053 -91 747 -37 
Q 441 16 72 128 
L 184 722 
Q 500 559 806 475 
Q 1113 391 1394 391 
Q 1816 391 2080 572 
Q 2344 753 2344 1031 
Q 2344 1331 1650 1516 
L 1591 1531 
L 1394 1581 
Q 956 1697 753 1886 
Q 550 2075 550 2369 
Q 550 2928 970 3256 
Q 1391 3584 2113 3584 
Q 2397 3584 2667 3537 
Q 2938 3491 3200 3397 
z
" transform="scale(0.015625)"/>
       <path id="DejaVuSans-31" d="M 794 531 
L 1825 531 
L 1825 4091 
L 703 3866 
L 703 4441 
L 1819 4666 
L 2450 4666 
L 2450 531 
L 3481 531 
L 3481 0 
L 794 0 
L 794 531 
z
" transform="scale(0.015625)"/>
      </defs>
      <use xlink:href="#DejaVuSans-Oblique-73"/>
      <use xlink:href="#DejaVuSans-31" transform="translate(52.099609 -16.40625) scale(0.7)"/>
     </g>
    </g>
   </g>
   <g id="matplotlib.axis_2"/>
   <g id="line2d_1">
    <path d="M 32.563636 165.96 
L 189.833909 165.84909 
L 198.001817 165.602053 
L 203.430178 165.223647 
L 207.59023 164.719217 
L 211.090762 164.074927 
L 214.134703 163.289792 
L 216.823517 162.371468 
L 219.309402 161.290631 
L 221.64309 160.033442 
L 223.875313 158.574078 
L 226.006072 156.91261 
L 228.086098 155.005629 
L 230.115392 152.843716 
L 232.144685 150.355345 
L 234.173979 147.513351 
L 236.254005 144.207347 
L 238.334032 140.480777 
L 240.515522 136.101216 
L 242.747746 131.107461 
L 245.081434 125.329433 
L 247.567319 118.560699 
L 250.256133 110.5667 
L 253.249341 100.937413 
L 256.800606 88.726823 
L 263.294346 65.39363 
L 267.505131 50.725966 
L 270.396874 41.435729 
L 272.781294 34.506198 
L 274.810588 29.260744 
L 276.636953 25.133977 
L 278.260388 21.98932 
L 279.731626 19.597714 
L 281.101399 17.784198 
L 282.318976 16.519679 
L 283.485819 15.623169 
L 284.551199 15.079061 
L 285.565846 14.807176 
L 286.52976 14.772703 
L 287.493675 14.956472 
L 288.508322 15.384799 
L 289.573701 16.091582 
L 290.689813 17.11041 
L 291.907389 18.53989 
L 293.22643 20.451895 
L 294.646936 22.916558 
L 296.219638 26.109239 
L 297.944538 30.130826 
L 299.872367 35.20643 
L 302.053858 41.591069 
L 304.641208 49.879188 
L 307.93881 61.238336 
L 320.723361 106.085051 
L 323.71657 115.323904 
L 326.405384 122.915253 
L 328.891269 129.285702 
L 331.275689 134.791011 
L 333.558645 139.505908 
L 335.740136 143.513875 
L 337.870894 146.977747 
L 340.001653 150.01997 
L 342.081679 152.610031 
L 344.161705 154.85418 
L 346.292464 156.82638 
L 348.423222 158.501177 
L 350.655446 159.972837 
L 352.989133 161.241145 
L 355.424286 162.312148 
L 358.062368 163.228484 
L 360.954112 163.995317 
L 364.200982 164.623779 
L 368.005908 165.127023 
L 372.622551 165.50451 
L 378.710433 165.764663 
L 387.892987 165.911152 
L 408.49032 165.958646 
L 539.836364 165.96 
L 539.836364 165.96 
" clip-path="url(#p5f171974ef)" style="fill: none; stroke: #4c72b0; stroke-opacity: 0.7; stroke-width: 1.75; stroke-linecap: round"/>
   </g>
   <g id="line2d_2">
    <path d="M 32.563636 164.765543 
L 72.845119 164.278816 
L 102.06695 163.713593 
L 124.287718 163.070472 
L 141.790377 162.349826 
L 155.995434 161.549501 
L 167.765338 160.669673 
L 177.658146 159.713583 
L 186.130448 158.677663 
L 193.486638 157.559864 
L 199.929646 156.361853 
L 205.662401 155.07449 
L 210.786368 153.700436 
L 215.403011 152.237224 
L 219.613796 150.673614 
L 223.469454 149.008895 
L 227.020718 147.238612 
L 230.369053 145.321408 
L 233.463726 143.2965 
L 236.406202 141.106944 
L 239.196481 138.75383 
L 241.885296 136.191549 
L 244.472645 133.4123 
L 246.95853 130.411589 
L 249.393683 127.116756 
L 251.778103 123.50822 
L 254.111791 119.569647 
L 256.445479 115.189866 
L 258.779167 110.33454 
L 261.163587 104.85667 
L 263.649472 98.581271 
L 266.338287 91.177372 
L 269.585157 81.543729 
L 276.738417 60.05693 
L 278.666247 55.100551 
L 280.238949 51.634673 
L 281.55799 49.229755 
L 282.724834 47.542811 
L 283.739481 46.44454 
L 284.652663 45.767121 
L 285.464381 45.421187 
L 286.225366 45.319915 
L 286.986351 45.435641 
L 287.798069 45.796817 
L 288.660519 46.44454 
L 289.573701 47.417119 
L 290.588348 48.826193 
L 291.755192 50.84207 
L 293.124965 53.688919 
L 294.697668 57.494742 
L 296.676229 62.901838 
L 299.517241 71.390678 
L 306.264643 91.756685 
L 309.105654 99.512512 
L 311.693004 105.946776 
L 314.178889 111.540406 
L 316.614041 116.474471 
L 318.998462 120.813321 
L 321.382882 124.70355 
L 323.818035 128.256742 
L 326.303919 131.49197 
L 328.840537 134.431009 
L 331.478619 137.146011 
L 334.218165 139.64328 
L 337.059177 141.932055 
L 340.052385 144.057397 
L 343.197791 146.019533 
L 346.546126 147.847957 
L 350.148122 149.561342 
L 354.054513 151.170326 
L 358.31603 152.679873 
L 362.932673 154.07714 
L 368.05664 155.391998 
L 373.738663 156.616581 
L 380.130939 157.761522 
L 387.334932 158.821251 
L 395.553572 159.801255 
L 405.091253 160.708463 
L 416.252369 161.53955 
L 429.493511 162.295083 
L 445.4742 162.976347 
L 465.15835 163.584397 
L 490.0172 164.120247 
L 522.384437 164.584588 
L 539.836364 164.765543 
L 539.836364 164.765543 
" clip-path="url(#p5f171974ef)" style="fill: none; stroke: #55a868; stroke-opacity: 0.7; stroke-width: 1.75; stroke-linecap: round"/>
   </g>
   <g id="patch_3">
    <path d="M 7.2 173.52 
L 7.2 7.2 
" style="fill: none"/>
   </g>
   <g id="patch_4">
    <path d="M 565.2 173.52 
L 565.2 7.2 
" style="fill: none"/>
   </g>
   <g id="patch_5">
    <path d="M 7.2 173.52 
L 565.2 173.52 
" style="fill: none"/>
   </g>
   <g id="patch_6">
    <path d="M 7.2 7.2 
L 565.2 7.2 
" style="fill: none"/>
   </g>
   <g id="legend_1">
    <g id="line2d_3">
     <path d="M 485.95625 19.857813 
L 495.95625 19.857813 
L 505.95625 19.857813 
" style="fill: none; stroke: #4c72b0; stroke-opacity: 0.7; stroke-width: 1.75; stroke-linecap: round"/>
    </g>
    <g id="text_2">
     <!-- Gaussian -->
     <g style="fill: #262626" transform="translate(513.95625 23.357813) scale(0.1 -0.1)">
      <defs>
       <path id="ArialMT-47" d="M 2638 1797 
L 2638 2334 
L 4578 2338 
L 4578 638 
Q 4131 281 3656 101 
Q 3181 -78 2681 -78 
Q 2006 -78 1454 211 
Q 903 500 622 1047 
Q 341 1594 341 2269 
Q 341 2938 620 3517 
Q 900 4097 1425 4378 
Q 1950 4659 2634 4659 
Q 3131 4659 3532 4498 
Q 3934 4338 4162 4050 
Q 4391 3763 4509 3300 
L 3963 3150 
Q 3859 3500 3706 3700 
Q 3553 3900 3268 4020 
Q 2984 4141 2638 4141 
Q 2222 4141 1919 4014 
Q 1616 3888 1430 3681 
Q 1244 3475 1141 3228 
Q 966 2803 966 2306 
Q 966 1694 1177 1281 
Q 1388 869 1791 669 
Q 2194 469 2647 469 
Q 3041 469 3416 620 
Q 3791 772 3984 944 
L 3984 1797 
L 2638 1797 
z
" transform="scale(0.015625)"/>
       <path id="ArialMT-61" d="M 2588 409 
Q 2275 144 1986 34 
Q 1697 -75 1366 -75 
Q 819 -75 525 192 
Q 231 459 231 875 
Q 231 1119 342 1320 
Q 453 1522 633 1644 
Q 813 1766 1038 1828 
Q 1203 1872 1538 1913 
Q 2219 1994 2541 2106 
Q 2544 2222 2544 2253 
Q 2544 2597 2384 2738 
Q 2169 2928 1744 2928 
Q 1347 2928 1158 2789 
Q 969 2650 878 2297 
L 328 2372 
Q 403 2725 575 2942 
Q 747 3159 1072 3276 
Q 1397 3394 1825 3394 
Q 2250 3394 2515 3294 
Q 2781 3194 2906 3042 
Q 3031 2891 3081 2659 
Q 3109 2516 3109 2141 
L 3109 1391 
Q 3109 606 3145 398 
Q 3181 191 3288 0 
L 2700 0 
Q 2613 175 2588 409 
z
M 2541 1666 
Q 2234 1541 1622 1453 
Q 1275 1403 1131 1340 
Q 988 1278 909 1158 
Q 831 1038 831 891 
Q 831 666 1001 516 
Q 1172 366 1500 366 
Q 1825 366 2078 508 
Q 2331 650 2450 897 
Q 2541 1088 2541 1459 
L 2541 1666 
z
" transform="scale(0.015625)"/>
       <path id="ArialMT-75" d="M 2597 0 
L 2597 488 
Q 2209 -75 1544 -75 
Q 1250 -75 995 37 
Q 741 150 617 320 
Q 494 491 444 738 
Q 409 903 409 1263 
L 409 3319 
L 972 3319 
L 972 1478 
Q 972 1038 1006 884 
Q 1059 663 1231 536 
Q 1403 409 1656 409 
Q 1909 409 2131 539 
Q 2353 669 2445 892 
Q 2538 1116 2538 1541 
L 2538 3319 
L 3100 3319 
L 3100 0 
L 2597 0 
z
" transform="scale(0.015625)"/>
       <path id="ArialMT-73" d="M 197 991 
L 753 1078 
Q 800 744 1014 566 
Q 1228 388 1613 388 
Q 2000 388 2187 545 
Q 2375 703 2375 916 
Q 2375 1106 2209 1216 
Q 2094 1291 1634 1406 
Q 1016 1563 777 1677 
Q 538 1791 414 1992 
Q 291 2194 291 2438 
Q 291 2659 392 2848 
Q 494 3038 669 3163 
Q 800 3259 1026 3326 
Q 1253 3394 1513 3394 
Q 1903 3394 2198 3281 
Q 2494 3169 2634 2976 
Q 2775 2784 2828 2463 
L 2278 2388 
Q 2241 2644 2061 2787 
Q 1881 2931 1553 2931 
Q 1166 2931 1000 2803 
Q 834 2675 834 2503 
Q 834 2394 903 2306 
Q 972 2216 1119 2156 
Q 1203 2125 1616 2013 
Q 2213 1853 2448 1751 
Q 2684 1650 2818 1456 
Q 2953 1263 2953 975 
Q 2953 694 2789 445 
Q 2625 197 2315 61 
Q 2006 -75 1616 -75 
Q 969 -75 630 194 
Q 291 463 197 991 
z
" transform="scale(0.015625)"/>
       <path id="ArialMT-69" d="M 425 3934 
L 425 4581 
L 988 4581 
L 988 3934 
L 425 3934 
z
M 425 0 
L 425 3319 
L 988 3319 
L 988 0 
L 425 0 
z
" transform="scale(0.015625)"/>
       <path id="ArialMT-6e" d="M 422 0 
L 422 3319 
L 928 3319 
L 928 2847 
Q 1294 3394 1984 3394 
Q 2284 3394 2536 3286 
Q 2788 3178 2913 3003 
Q 3038 2828 3088 2588 
Q 3119 2431 3119 2041 
L 3119 0 
L 2556 0 
L 2556 2019 
Q 2556 2363 2490 2533 
Q 2425 2703 2258 2804 
Q 2091 2906 1866 2906 
Q 1506 2906 1245 2678 
Q 984 2450 984 1813 
L 984 0 
L 422 0 
z
" transform="scale(0.015625)"/>
      </defs>
      <use xlink:href="#ArialMT-47"/>
      <use xlink:href="#ArialMT-61" x="77.783203"/>
      <use xlink:href="#ArialMT-75" x="133.398438"/>
      <use xlink:href="#ArialMT-73" x="189.013672"/>
      <use xlink:href="#ArialMT-73" x="239.013672"/>
      <use xlink:href="#ArialMT-69" x="289.013672"/>
      <use xlink:href="#ArialMT-61" x="311.230469"/>
      <use xlink:href="#ArialMT-6e" x="366.845703"/>
     </g>
    </g>
    <g id="line2d_4">
     <path d="M 485.95625 34.003125 
L 495.95625 34.003125 
L 505.95625 34.003125 
" style="fill: none; stroke: #55a868; stroke-opacity: 0.7; stroke-width: 1.75; stroke-linecap: round"/>
    </g>
    <g id="text_3">
     <!-- Student -->
     <g style="fill: #262626" transform="translate(513.95625 37.503125) scale(0.1 -0.1)">
      <defs>
       <path id="ArialMT-53" d="M 288 1472 
L 859 1522 
Q 900 1178 1048 958 
Q 1197 738 1509 602 
Q 1822 466 2213 466 
Q 2559 466 2825 569 
Q 3091 672 3220 851 
Q 3350 1031 3350 1244 
Q 3350 1459 3225 1620 
Q 3100 1781 2813 1891 
Q 2628 1963 1997 2114 
Q 1366 2266 1113 2400 
Q 784 2572 623 2826 
Q 463 3081 463 3397 
Q 463 3744 659 4045 
Q 856 4347 1234 4503 
Q 1613 4659 2075 4659 
Q 2584 4659 2973 4495 
Q 3363 4331 3572 4012 
Q 3781 3694 3797 3291 
L 3216 3247 
Q 3169 3681 2898 3903 
Q 2628 4125 2100 4125 
Q 1550 4125 1298 3923 
Q 1047 3722 1047 3438 
Q 1047 3191 1225 3031 
Q 1400 2872 2139 2705 
Q 2878 2538 3153 2413 
Q 3553 2228 3743 1945 
Q 3934 1663 3934 1294 
Q 3934 928 3725 604 
Q 3516 281 3123 101 
Q 2731 -78 2241 -78 
Q 1619 -78 1198 103 
Q 778 284 539 648 
Q 300 1013 288 1472 
z
" transform="scale(0.015625)"/>
       <path id="ArialMT-74" d="M 1650 503 
L 1731 6 
Q 1494 -44 1306 -44 
Q 1000 -44 831 53 
Q 663 150 594 308 
Q 525 466 525 972 
L 525 2881 
L 113 2881 
L 113 3319 
L 525 3319 
L 525 4141 
L 1084 4478 
L 1084 3319 
L 1650 3319 
L 1650 2881 
L 1084 2881 
L 1084 941 
Q 1084 700 1114 631 
Q 1144 563 1211 522 
Q 1278 481 1403 481 
Q 1497 481 1650 503 
z
" transform="scale(0.015625)"/>
       <path id="ArialMT-64" d="M 2575 0 
L 2575 419 
Q 2259 -75 1647 -75 
Q 1250 -75 917 144 
Q 584 363 401 755 
Q 219 1147 219 1656 
Q 219 2153 384 2558 
Q 550 2963 881 3178 
Q 1213 3394 1622 3394 
Q 1922 3394 2156 3267 
Q 2391 3141 2538 2938 
L 2538 4581 
L 3097 4581 
L 3097 0 
L 2575 0 
z
M 797 1656 
Q 797 1019 1065 703 
Q 1334 388 1700 388 
Q 2069 388 2326 689 
Q 2584 991 2584 1609 
Q 2584 2291 2321 2609 
Q 2059 2928 1675 2928 
Q 1300 2928 1048 2622 
Q 797 2316 797 1656 
z
" transform="scale(0.015625)"/>
       <path id="ArialMT-65" d="M 2694 1069 
L 3275 997 
Q 3138 488 2766 206 
Q 2394 -75 1816 -75 
Q 1088 -75 661 373 
Q 234 822 234 1631 
Q 234 2469 665 2931 
Q 1097 3394 1784 3394 
Q 2450 3394 2872 2941 
Q 3294 2488 3294 1666 
Q 3294 1616 3291 1516 
L 816 1516 
Q 847 969 1125 678 
Q 1403 388 1819 388 
Q 2128 388 2347 550 
Q 2566 713 2694 1069 
z
M 847 1978 
L 2700 1978 
Q 2663 2397 2488 2606 
Q 2219 2931 1791 2931 
Q 1403 2931 1139 2672 
Q 875 2413 847 1978 
z
" transform="scale(0.015625)"/>
      </defs>
      <use xlink:href="#ArialMT-53"/>
      <use xlink:href="#ArialMT-74" x="66.699219"/>
      <use xlink:href="#ArialMT-75" x="94.482422"/>
      <use xlink:href="#ArialMT-64" x="150.097656"/>
      <use xlink:href="#ArialMT-65" x="205.712891"/>
      <use xlink:href="#ArialMT-6e" x="261.328125"/>
      <use xlink:href="#ArialMT-74" x="316.943359"/>
     </g>
    </g>
   </g>
  </g>
 </g>
 <defs>
  <clipPath id="p5f171974ef">
   <rect x="7.2" y="7.2" width="558" height="166.32"/>
  </clipPath>
 </defs>
</svg>
