<?xml version="1.0" encoding="utf-8" standalone="no"?>
<!DOCTYPE svg PUBLIC "-//W3C//DTD SVG 1.1//EN"
  "http://www.w3.org/Graphics/SVG/1.1/DTD/svg11.dtd">
<svg xmlns:xlink="http://www.w3.org/1999/xlink" width="204.331193pt" height="194.779844pt" viewBox="0 0 204.331193 194.779844" xmlns="http://www.w3.org/2000/svg" version="1.1">
 <metadata>
  <rdf:RDF xmlns:dc="http://purl.org/dc/elements/1.1/" xmlns:cc="http://creativecommons.org/ns#" xmlns:rdf="http://www.w3.org/1999/02/22-rdf-syntax-ns#">
   <cc:Work>
    <dc:type rdf:resource="http://purl.org/dc/dcmitype/StillImage"/>
    <dc:date>2024-04-06T17:40:40.925967</dc:date>
    <dc:format>image/svg+xml</dc:format>
    <dc:creator>
     <cc:Agent>
      <dc:title>Matplotlib v3.8.0, https://matplotlib.org/</dc:title>
     </cc:Agent>
    </dc:creator>
   </cc:Work>
  </rdf:RDF>
 </metadata>
 <defs>
  <style type="text/css">*{stroke-linejoin: round; stroke-linecap: butt}</style>
 </defs>
 <g id="figure_1">
  <g id="patch_1">
   <path d="M 0 194.779844 
L 204.331193 194.779844 
L 204.331193 0 
L 0 0 
z
" style="fill: #ffffff"/>
  </g>
  <g id="axes_1">
   <g id="patch_2">
    <path d="M 21.259844 173.52 
L 188.659844 173.52 
L 188.659844 7.2 
L 21.259844 7.2 
z
" style="fill: #eaeaf2"/>
   </g>
   <g id="matplotlib.axis_1">
    <g id="text_1">
     <!-- $s_1$ -->
     <g style="fill: #262626" transform="translate(99.459844 185.393594) scale(0.11 -0.11)">
      <defs>
       <path id="DejaVuSans-Oblique-73" d="M 3200 3397 
L 3091 2853 
Q 2863 2978 2609 3040 
Q 2356 3103 2088 3103 
Q 1634 3103 1373 2948 
Q 1113 2794 1113 2528 
Q 1113 2219 1719 2053 
Q 1766 2041 1788 2034 
L 1972 1978 
Q 2547 1819 2739 1644 
Q 2931 1469 2931 1166 
Q 2931 609 2489 259 
Q 2047 -91 1331 -91 
Q 1053 -91 747 -37 
Q 441 16 72 128 
L 184 722 
Q 500 559 806 475 
Q 1113 391 1394 391 
Q 1816 391 2080 572 
Q 2344 753 2344 1031 
Q 2344 1331 1650 1516 
L 1591 1531 
L 1394 1581 
Q 956 1697 753 1886 
Q 550 2075 550 2369 
Q 550 2928 970 3256 
Q 1391 3584 2113 3584 
Q 2397 3584 2667 3537 
Q 2938 3491 3200 3397 
z
" transform="scale(0.015625)"/>
       <path id="DejaVuSans-31" d="M 794 531 
L 1825 531 
L 1825 4091 
L 703 3866 
L 703 4441 
L 1819 4666 
L 2450 4666 
L 2450 531 
L 3481 531 
L 3481 0 
L 794 0 
L 794 531 
z
" transform="scale(0.015625)"/>
      </defs>
      <use xlink:href="#DejaVuSans-Oblique-73"/>
      <use xlink:href="#DejaVuSans-31" transform="translate(52.099609 -16.40625) scale(0.7)"/>
     </g>
    </g>
   </g>
   <g id="matplotlib.axis_2">
    <g id="text_2">
     <!-- $s_2$ -->
     <g style="fill: #262626" transform="translate(15.073594 95.86) rotate(-90) scale(0.11 -0.11)">
      <defs>
       <path id="DejaVuSans-32" d="M 1228 531 
L 3431 531 
L 3431 0 
L 469 0 
L 469 531 
Q 828 903 1448 1529 
Q 2069 2156 2228 2338 
Q 2531 2678 2651 2914 
Q 2772 3150 2772 3378 
Q 2772 3750 2511 3984 
Q 2250 4219 1831 4219 
Q 1534 4219 1204 4116 
Q 875 4013 500 3803 
L 500 4441 
Q 881 4594 1212 4672 
Q 1544 4750 1819 4750 
Q 2544 4750 2975 4387 
Q 3406 4025 3406 3419 
Q 3406 3131 3298 2873 
Q 3191 2616 2906 2266 
Q 2828 2175 2409 1742 
Q 1991 1309 1228 531 
z
" transform="scale(0.015625)"/>
      </defs>
      <use xlink:href="#DejaVuSans-Oblique-73"/>
      <use xlink:href="#DejaVuSans-32" transform="translate(52.099609 -16.40625) scale(0.7)"/>
     </g>
    </g>
   </g>
   <g id="PathCollection_1">
    <defs>
     <path id="m6442a027fa" d="M 0 5 
C 1.326016 5 2.597899 4.473168 3.535534 3.535534 
C 4.473168 2.597899 5 1.326016 5 0 
C 5 -1.326016 4.473168 -2.597899 3.535534 -3.535534 
C 2.597899 -4.473168 1.326016 -5 0 -5 
C -1.326016 -5 -2.597899 -4.473168 -3.535534 -3.535534 
C -4.473168 -2.597899 -5 -1.326016 -5 0 
C -5 1.326016 -4.473168 2.597899 -3.535534 3.535534 
C -2.597899 4.473168 -1.326016 5 0 5 
z
" style="stroke: #4c72b0; stroke-width: 0.3"/>
    </defs>
    <g clip-path="url(#pb5f908ea24)">
     <use xlink:href="#m6442a027fa" x="181.050753" y="90.36" style="fill: #4c72b0; stroke: #4c72b0; stroke-width: 0.3"/>
    </g>
   </g>
   <g id="PathCollection_2">
    <defs>
     <path id="m09568f06ef" d="M 0 5 
C 1.326016 5 2.597899 4.473168 3.535534 3.535534 
C 4.473168 2.597899 5 1.326016 5 0 
C 5 -1.326016 4.473168 -2.597899 3.535534 -3.535534 
C 2.597899 -4.473168 1.326016 -5 0 -5 
C -1.326016 -5 -2.597899 -4.473168 -3.535534 -3.535534 
C -4.473168 -2.597899 -5 -1.326016 -5 0 
C -5 1.326016 -4.473168 2.597899 -3.535534 3.535534 
C -2.597899 4.473168 -1.326016 5 0 5 
z
" style="stroke: #55a868; stroke-width: 0.3"/>
    </defs>
    <g clip-path="url(#pb5f908ea24)">
     <use xlink:href="#m09568f06ef" x="66.914386" y="24.888479" style="fill: #55a868; stroke: #55a868; stroke-width: 0.3"/>
    </g>
   </g>
   <g id="PathCollection_3">
    <defs>
     <path id="m697ef5aed4" d="M 0 5 
C 1.326016 5 2.597899 4.473168 3.535534 3.535534 
C 4.473168 2.597899 5 1.326016 5 0 
C 5 -1.326016 4.473168 -2.597899 3.535534 -3.535534 
C 2.597899 -4.473168 1.326016 -5 0 -5 
C -1.326016 -5 -2.597899 -4.473168 -3.535534 -3.535534 
C -4.473168 -2.597899 -5 -1.326016 -5 0 
C -5 1.326016 -4.473168 2.597899 -3.535534 3.535534 
C -2.597899 4.473168 -1.326016 5 0 5 
z
" style="stroke: #c44e52; stroke-width: 0.3"/>
    </defs>
    <g clip-path="url(#pb5f908ea24)">
     <use xlink:href="#m697ef5aed4" x="66.914386" y="155.831521" style="fill: #c44e52; stroke: #c44e52; stroke-width: 0.3"/>
    </g>
   </g>
   <g id="line2d_1">
    <path d="M 181.050753 90.36 
L 180.939672 86.276504 
L 180.606752 82.20493 
L 180.052967 78.157167 
L 179.279932 74.145033 
L 178.289906 70.180241 
L 177.085777 66.274368 
L 175.671063 62.438817 
L 174.049894 58.684789 
L 172.227002 55.023242 
L 170.207711 51.464867 
L 167.997916 48.020055 
L 165.604068 44.698863 
L 163.033158 41.510987 
L 160.292691 38.465736 
L 157.390669 35.572 
L 154.335565 32.838228 
L 151.136299 30.272403 
L 147.802212 27.882015 
L 144.343038 25.674044 
L 140.768877 23.654937 
L 137.090164 21.830588 
L 133.31764 20.206324 
L 129.462321 18.786888 
L 125.535461 17.576423 
L 121.548527 16.578465 
L 117.513159 15.795926 
L 113.441139 15.231091 
L 109.344357 14.885611 
L 105.234772 14.760493 
L 101.124386 14.856102 
L 97.025197 15.17216 
L 92.949175 15.707744 
L 88.908221 16.461289 
L 84.914133 17.430597 
L 80.978572 18.612836 
L 77.113029 20.004555 
L 73.32879 21.601691 
L 69.636904 23.39958 
L 66.048151 25.392974 
L 62.573008 27.576051 
L 59.221622 29.942439 
L 56.003778 32.485227 
L 52.92887 35.196993 
L 50.005877 38.069817 
L 47.243333 41.095313 
L 44.649304 44.264648 
L 42.231363 47.568566 
L 39.99657 50.997423 
L 37.951451 54.541206 
L 36.101976 58.18957 
L 34.453544 61.931861 
L 33.01097 65.757154 
L 31.778465 69.65428 
L 30.759627 73.61186 
L 29.957432 77.61834 
L 29.37422 81.662021 
L 29.011696 85.731098 
L 28.870918 89.81369 
L 28.952296 93.897877 
L 29.255593 97.971734 
L 29.779923 102.023368 
L 30.523756 106.040948 
L 31.48492 110.012744 
L 32.660609 113.927161 
L 34.047389 117.772768 
L 35.641212 121.538339 
L 37.437425 125.212878 
L 39.430783 128.785657 
L 41.615465 132.246245 
L 43.985094 135.584538 
L 46.532751 138.790788 
L 49.250997 141.855636 
L 52.131897 144.770132 
L 55.167037 147.525767 
L 58.347558 150.114495 
L 61.664173 152.528758 
L 65.107197 154.761507 
L 68.66658 156.806223 
L 72.331927 158.656937 
L 76.092539 160.308244 
L 79.937434 161.755323 
L 83.855387 162.99395 
L 87.834958 164.020507 
L 91.864529 164.831998 
L 95.932335 165.426054 
L 100.026498 165.800939 
L 104.135065 165.95556 
L 108.24604 165.889464 
L 112.34742 165.602845 
L 116.427231 165.09654 
L 120.47356 164.372027 
L 124.474594 163.431421 
L 128.418651 162.277469 
L 132.294215 160.91354 
L 136.089972 159.343615 
L 139.794837 157.57228 
L 143.397995 155.604704 
L 146.888926 153.446634 
L 150.257436 151.104371 
L 153.49369 148.584752 
L 156.588241 145.895134 
L 159.532052 143.04337 
L 162.316529 140.037788 
L 164.933542 136.887161 
L 167.37545 133.600688 
L 169.635123 130.187966 
L 171.705964 126.658959 
L 173.581927 123.023969 
L 175.257533 119.293611 
L 176.727892 115.478775 
L 177.98871 111.5906 
L 179.036306 107.640438 
L 179.86762 103.639823 
L 180.480227 99.600434 
L 180.872337 95.534066 
L 181.042806 91.452591 
L 181.050753 90.36 
L 181.050753 90.36 
" clip-path="url(#pb5f908ea24)" style="fill: none; stroke: #4c72b0; stroke-opacity: 0.2; stroke-width: 1.75; stroke-linecap: round"/>
   </g>
   <g id="patch_3">
    <path d="M 21.259844 173.52 
L 21.259844 7.2 
" style="fill: none"/>
   </g>
   <g id="patch_4">
    <path d="M 188.659844 173.52 
L 188.659844 7.2 
" style="fill: none"/>
   </g>
   <g id="patch_5">
    <path d="M 21.259844 173.52 
L 188.659844 173.52 
" style="fill: none"/>
   </g>
   <g id="patch_6">
    <path d="M 21.259844 7.2 
L 188.659844 7.2 
" style="fill: none"/>
   </g>
   <g id="text_3">
    <!-- $x_0$ -->
    <g style="fill: #262626" transform="translate(186.431193 85.014273) scale(0.1 -0.1)">
     <defs>
      <path id="DejaVuSans-Oblique-78" d="M 3841 3500 
L 2234 1784 
L 3219 0 
L 2559 0 
L 1819 1388 
L 531 0 
L -166 0 
L 1556 1844 
L 641 3500 
L 1300 3500 
L 1972 2234 
L 3144 3500 
L 3841 3500 
z
" transform="scale(0.015625)"/>
      <path id="DejaVuSans-30" d="M 2034 4250 
Q 1547 4250 1301 3770 
Q 1056 3291 1056 2328 
Q 1056 1369 1301 889 
Q 1547 409 2034 409 
Q 2525 409 2770 889 
Q 3016 1369 3016 2328 
Q 3016 3291 2770 3770 
Q 2525 4250 2034 4250 
z
M 2034 4750 
Q 2819 4750 3233 4129 
Q 3647 3509 3647 2328 
Q 3647 1150 3233 529 
Q 2819 -91 2034 -91 
Q 1250 -91 836 529 
Q 422 1150 422 2328 
Q 422 3509 836 4129 
Q 1250 4750 2034 4750 
z
" transform="scale(0.015625)"/>
     </defs>
     <use xlink:href="#DejaVuSans-Oblique-78" transform="translate(0 0.3125)"/>
     <use xlink:href="#DejaVuSans-30" transform="translate(59.179688 -16.09375) scale(0.7)"/>
    </g>
   </g>
   <g id="text_4">
    <!-- $x_1$ -->
    <g style="fill: #262626" transform="translate(72.294826 19.542751) scale(0.1 -0.1)">
     <use xlink:href="#DejaVuSans-Oblique-78" transform="translate(0 0.3125)"/>
     <use xlink:href="#DejaVuSans-31" transform="translate(59.179688 -16.09375) scale(0.7)"/>
    </g>
   </g>
   <g id="text_5">
    <!-- $x_2$ -->
    <g style="fill: #262626" transform="translate(72.294826 150.485794) scale(0.1 -0.1)">
     <use xlink:href="#DejaVuSans-Oblique-78" transform="translate(0 0.3125)"/>
     <use xlink:href="#DejaVuSans-32" transform="translate(59.179688 -16.09375) scale(0.7)"/>
    </g>
   </g>
  </g>
 </g>
 <defs>
  <clipPath id="pb5f908ea24">
   <rect x="21.259844" y="7.2" width="167.4" height="166.32"/>
  </clipPath>
 </defs>
</svg>
